<svg width="190" height="173" viewBox="0 0 190 173" fill="none" xmlns="http://www.w3.org/2000/svg">
<path d="M74.2624 -152.32C72.0725 -118.716 60.4714 -45.546 31.5863 -21.7042C-4.52014 8.09797 -45.4061 -12.5464 -70.8965 35.9598C-96.387 84.466 -85.9868 111.915 -121.001 121.069" stroke="#2069E0"/>
<path d="M164.159 -7.1427C151.269 -9.84055 119.992 -8.2557 98.0028 19.6665C70.516 54.5692 97.8182 82.2596 55.183 93.1145C12.5479 103.969 -46.3373 96.0398 -63.1091 129.889" stroke="#2069E0"/>
<path d="M82.433 -139.122C79.2704 -108.818 65.8806 -42.156 37.6223 -17.9433C2.29948 12.3226 -32.3875 -3.9277 -59.4366 41.1556C-86.4856 86.239 -82.3842 110.472 -115.74 121.871" stroke="#2069E0"/>
<path d="M90.6055 -125.924C86.4701 -98.9199 71.2916 -38.7658 43.6602 -14.1821C9.12102 16.5474 -19.3671 4.69123 -47.9747 46.3517C-76.5824 88.0122 -78.7796 109.029 -110.477 122.673" stroke="#2069E0"/>
<path d="M98.7809 -112.726C93.6728 -89.0218 76.7056 -35.3753 49.7011 -10.4207C15.9455 20.7725 -6.34365 13.3104 -36.5099 51.5481C-66.6762 89.7857 -75.1721 107.586 -105.211 123.475" stroke="#2069E0"/>
<path d="M106.953 -99.5278C100.873 -79.1241 82.1167 -31.9853 55.7391 -6.65979C22.7671 24.9971 6.67683 21.9291 -25.0481 56.7439C-56.7729 91.5587 -71.5675 106.143 -99.9478 124.277" stroke="#2069E0"/>
<path d="M115.124 -86.3296C108.07 -69.2262 87.5258 -28.5951 61.7751 -2.89861C29.5867 29.222 19.6953 30.548 -13.5882 61.94C-46.8716 93.3319 -67.9648 104.7 -94.6868 125.079" stroke="#2069E0"/>
<path d="M123.299 -73.1322C115.273 -59.329 92.9398 -25.2056 67.816 0.861815C36.4112 33.4461 32.7188 39.1662 -2.12336 67.1353C-36.9655 95.1044 -64.3573 103.256 -89.4209 125.88" stroke="#2069E0"/>
<path d="M131.47 -59.9346C122.471 -49.4315 98.3489 -21.8159 73.852 4.62251C43.2308 37.6705 45.7373 47.7847 9.33655 72.3309C-27.0642 96.8772 -60.7547 101.813 -84.1599 126.681" stroke="#2069E0"/>
<path d="M139.64 -46.7369C129.669 -39.5341 103.758 -18.4261 79.888 8.3832C50.0504 41.8949 58.7558 56.4031 20.7965 77.5265C-17.1629 98.6499 -57.152 100.369 -78.8989 127.483" stroke="#2069E0"/>
<path d="M147.813 -33.5385C136.869 -29.6359 109.169 -15.0357 85.9259 12.1446C56.8719 46.1199 71.7763 65.0223 32.2583 82.7228C-7.2596 100.423 -53.5474 98.9263 -73.636 128.285" stroke="#2069E0"/>
<path d="M155.984 -20.3399C144.067 -19.7375 114.579 -11.6449 91.9629 15.9063C63.6925 50.3453 84.7958 73.6417 43.7192 87.9194C2.64268 102.197 -49.9438 97.4838 -68.374 129.088" stroke="#2069E0"/>
</svg>
