<svg width="121" height="250" viewBox="0 0 121 250" fill="none" xmlns="http://www.w3.org/2000/svg">
<path d="M196.262 27.6799C194.073 61.2845 182.471 134.454 153.586 158.296C117.48 188.098 76.5939 167.454 51.1035 215.96C25.613 264.466 36.0132 291.915 0.999452 301.069" stroke="#2069E0"/>
<path d="M286.159 172.857C273.269 170.159 241.992 171.744 220.003 199.666C192.516 234.569 219.818 262.26 177.183 273.114C134.548 283.969 75.6627 276.04 58.8909 309.889" stroke="#2069E0"/>
<path d="M204.433 40.8778C201.27 71.1821 187.881 137.844 159.622 162.057C124.299 192.323 89.6125 176.072 62.5634 221.156C35.5144 266.239 39.6158 290.472 6.26045 301.871" stroke="#2069E0"/>
<path d="M212.605 54.0759C208.47 81.0801 193.292 141.234 165.66 165.818C131.121 196.547 102.633 184.691 74.0253 226.352C45.4176 268.012 43.2204 289.029 11.5234 302.673" stroke="#2069E0"/>
<path d="M220.781 67.2743C215.673 90.9782 198.706 144.625 171.701 169.579C137.946 200.773 115.656 193.31 85.4901 231.548C55.3238 269.786 46.8279 287.586 16.7893 303.475" stroke="#2069E0"/>
<path d="M228.953 80.4722C222.873 100.876 204.117 148.015 177.739 173.34C144.767 204.997 128.677 201.929 96.9519 236.744C65.2271 271.559 50.4325 286.143 22.0522 304.277" stroke="#2069E0"/>
<path d="M237.124 93.6704C230.07 110.774 209.526 151.405 183.775 177.101C151.587 209.222 141.695 210.548 108.412 241.94C75.1284 273.332 54.0352 284.7 27.3132 305.079" stroke="#2069E0"/>
<path d="M245.299 106.868C237.273 120.671 214.94 154.794 189.816 180.862C158.411 213.446 154.719 219.166 119.877 247.135C85.0345 275.104 57.6427 283.256 32.5791 305.88" stroke="#2069E0"/>
<path d="M253.47 120.065C244.471 130.568 220.349 158.184 195.852 184.623C165.231 217.67 167.737 227.785 131.337 252.331C94.9358 276.877 61.2453 281.813 37.8401 306.681" stroke="#2069E0"/>
<path d="M261.64 133.263C251.669 140.466 225.758 161.574 201.888 188.383C172.05 221.895 180.756 236.403 142.796 257.527C104.837 278.65 64.848 280.369 43.1011 307.483" stroke="#2069E0"/>
<path d="M269.813 146.461C258.869 150.364 231.169 164.964 207.926 192.145C178.872 226.12 193.776 245.022 154.258 262.723C114.74 280.423 68.4526 278.926 48.364 308.285" stroke="#2069E0"/>
<path d="M277.984 159.66C266.067 160.263 236.579 168.355 213.963 195.906C185.693 230.345 206.796 253.642 165.719 267.919C124.643 282.197 72.0562 277.484 53.626 309.088" stroke="#2069E0"/>
</svg>
