<svg width="1440" height="1424" viewBox="0 0 1440 1424" fill="none" xmlns="http://www.w3.org/2000/svg">
<path d="M-329.949 317.791C-384.632 417.781 -413.576 627.037 -364.595 793.907C-308.753 984.153 -204.228 1110.9 -9.26414 1148.08C185.7 1185.26 288.991 1168.3 482.612 1265.54C661.448 1355.35 815.629 1400.89 758.103 1564.71C714.716 1688.26 835.693 1848.19 728.153 1942.98C620.614 2037.76 557.579 2075.23 548.131 2149.98" stroke="#2069E0"/>
<path d="M260.357 -60.2623C205.675 39.7273 122.19 274.936 225.711 415.854C355.113 592.001 609.848 333.179 804.813 370.362C999.777 407.544 904.014 658.281 1110.08 883.911C1248.49 1035.46 1015.68 1150.16 1086.59 1269.45C1224.86 1502.05 1426 1470.14 1318.46 1564.92C1210.92 1659.71 1147.88 1697.18 1138.44 1771.93" stroke="#2069E0"/>
<path d="M-305.283 301.836C-359.966 401.825 -391.508 612.318 -339.93 777.952C-280.584 967.526 -168.907 1075.91 26.057 1113.09C221.021 1150.27 314.833 1146.06 509.047 1249.41C685.958 1342.16 821.711 1391 770.301 1552.69C735.564 1681.44 860.358 1832.23 752.819 1927.02C645.28 2021.81 582.244 2059.28 572.796 2134.02" stroke="#2069E0"/>
<path d="M-279.771 285.375C-334.453 385.364 -368.592 597.093 -314.417 761.491C-251.569 950.394 -132.739 1040.42 62.2255 1077.6C257.19 1114.78 341.523 1123.32 536.329 1232.78C711.315 1328.47 828.64 1380.6 783.346 1540.18C757.26 1674.11 885.871 1815.77 778.331 1910.56C670.792 2005.35 607.757 2042.82 598.309 2117.56" stroke="#2069E0"/>
<path d="M-253.54 268.492C-308.223 368.481 -344.959 581.446 -288.186 744.608C-221.836 932.839 -95.8526 1004.5 99.1117 1041.68C294.076 1078.87 368.93 1100.15 564.329 1215.73C737.39 1314.36 836.286 1369.78 797.109 1527.24C779.673 1666.36 912.101 1798.89 804.562 1893.68C697.023 1988.46 633.987 2025.93 624.54 2100.68" stroke="#2069E0"/>
<path d="M-226.732 251.262C-281.415 351.252 -320.748 565.452 -261.378 727.378C-191.524 914.938 -58.3886 968.24 136.576 1005.42C331.54 1042.6 396.916 1076.64 592.907 1198.33C764.043 1299.9 844.511 1358.61 811.45 1513.95C802.664 1658.27 938.909 1781.66 831.37 1876.45C723.831 1971.23 660.796 2008.7 651.348 2083.45" stroke="#2069E0"/>
<path d="M-199.454 233.755C-254.137 333.745 -296.067 549.18 -234.1 709.871C-160.744 896.76 -20.4548 931.701 174.51 968.884C369.474 1006.07 425.371 1052.85 621.955 1180.65C791.165 1285.16 853.206 1347.17 826.26 1500.38C826.124 1649.9 966.188 1764.15 858.648 1858.94C751.109 1953.73 688.074 1991.2 678.626 2065.94" stroke="#2069E0"/>
<path d="M-171.808 216.027C-226.49 316.016 -271.018 532.688 -206.454 692.143C-129.595 878.36 17.8471 894.942 212.811 932.124C407.776 969.306 454.194 1028.83 651.371 1162.75C818.656 1270.2 862.268 1335.5 841.439 1486.6C849.953 1641.31 993.834 1746.43 886.294 1841.21C778.755 1936 715.72 1973.47 706.272 2048.21" stroke="#2069E0"/>
<path d="M-143.863 198.124C-198.546 298.113 -245.67 516.021 -178.509 674.24C-98.147 859.786 56.4476 858.007 251.412 895.189C446.376 932.372 483.316 1004.65 681.085 1144.68C846.445 1255.07 871.629 1323.66 856.916 1472.64C874.08 1632.54 1021.78 1728.52 914.239 1823.31C806.7 1918.09 743.664 1955.56 734.217 2030.31" stroke="#2069E0"/>
<path d="M-115.679 180.077C-170.361 280.067 -220.083 499.21 -150.325 656.193C-66.4598 841.068 95.2877 820.929 290.252 858.112C485.216 895.294 512.677 980.315 711.039 1126.46C874.474 1239.79 881.23 1311.68 872.633 1458.53C898.447 1623.63 1049.96 1710.48 942.424 1805.26C834.884 1900.05 771.849 1937.52 762.401 2012.27" stroke="#2069E0"/>
<path d="M-87.3034 161.918C-141.986 261.908 -194.305 482.286 -121.95 638.034C-34.5817 822.237 134.319 783.738 329.283 820.921C524.247 858.103 542.229 955.871 741.184 1108.13C902.694 1224.4 891.021 1299.58 888.541 1444.32C923.005 1614.6 1078.34 1692.32 970.799 1787.1C863.26 1881.89 800.224 1919.36 790.776 1994.11" stroke="#2069E0"/>
<path d="M-58.7757 143.664C-113.458 243.654 -168.374 465.268 -93.4219 619.78C-2.55115 803.312 173.502 746.453 368.466 783.635C563.431 820.818 571.934 931.333 771.482 1089.71C931.066 1208.92 900.966 1287.39 904.601 1430.01C947.715 1605.49 1106.87 1674.06 999.327 1768.85C891.787 1863.64 828.752 1901.11 819.304 1975.85" stroke="#2069E0"/>
<path d="M-30.1157 125.335C-84.7983 225.325 -142.312 448.176 -64.7618 601.451C29.6117 784.312 212.818 709.093 407.782 746.275C602.747 783.457 601.771 906.721 801.911 1071.21C959.571 1193.36 911.042 1275.13 920.793 1415.62C972.558 1596.29 1135.53 1655.73 1027.99 1750.52C920.447 1845.31 857.412 1882.78 847.964 1957.52" stroke="#2069E0"/>
<path d="M-1.35118 106.942C-56.0338 206.932 -116.144 431.018 -35.9973 583.058C61.8791 765.248 252.238 671.668 447.202 708.85C642.167 746.033 631.712 882.043 832.446 1052.65C988.18 1177.74 921.223 1262.8 937.09 1401.17C997.505 1587.04 1164.29 1637.34 1056.75 1732.13C949.212 1826.91 886.176 1864.38 876.729 1939.13" stroke="#2069E0"/>
<path d="M27.5024 88.498C-27.1802 188.488 -89.8878 413.81 -7.14366 564.614C94.2355 746.132 291.748 634.192 486.712 671.374C681.676 708.557 661.743 857.315 863.069 1034.03C1016.88 1162.06 931.493 1250.41 953.476 1386.67C1022.54 1577.73 1193.14 1618.9 1085.6 1713.68C978.066 1808.47 915.03 1845.94 905.582 1920.69" stroke="#2069E0"/>
<path d="M56.4332 70.0084C1.75056 169.998 -63.5542 396.556 21.787 546.124C126.669 726.971 331.334 596.671 526.298 633.853C721.263 671.036 691.851 832.541 893.769 1015.37C1045.65 1146.34 941.84 1237.99 969.94 1372.12C1047.65 1568.37 1222.07 1600.41 1114.54 1695.19C1007 1789.98 943.961 1827.45 934.513 1902.2" stroke="#2069E0"/>
<path d="M85.4227 51.4817C30.7401 151.471 -37.1618 379.265 50.7766 527.598C159.161 707.773 370.979 559.113 565.944 596.295C760.908 633.477 722.017 807.73 924.529 996.676C1074.49 1130.58 952.246 1225.52 986.462 1357.54C1072.83 1558.98 1251.06 1581.88 1143.52 1676.67C1035.99 1771.45 972.95 1808.92 963.503 1883.67" stroke="#2069E0"/>
<path d="M114.454 32.9328C59.7714 132.922 -10.7277 361.952 79.8079 509.049C191.696 688.553 410.666 521.532 605.631 558.715C800.595 595.897 752.226 782.897 955.33 977.957C1103.36 1114.8 962.693 1213.04 1003.03 1342.93C1098.04 1549.57 1280.1 1563.33 1172.56 1658.12C1065.02 1752.9 1001.98 1790.37 992.534 1865.12" stroke="#2069E0"/>
<path d="M143.538 14.3499C88.8555 114.34 15.7592 344.605 108.892 490.466C224.282 669.299 450.406 483.918 645.37 521.1C840.335 558.283 782.487 758.03 986.183 959.204C1132.29 1098.99 973.194 1200.52 1019.64 1328.29C1123.31 1540.12 1309.18 1544.75 1201.64 1639.53C1094.1 1734.32 1031.07 1771.79 1021.62 1846.54" stroke="#2069E0"/>
<path d="M172.675 -4.2626C117.992 95.727 42.2986 327.228 138.029 471.853C256.922 650.015 490.198 446.274 685.163 483.456C880.127 520.639 812.8 733.133 1017.09 940.421C1161.27 1083.15 983.747 1187.97 1036.31 1313.62C1148.63 1530.65 1338.32 1526.14 1230.78 1620.92C1123.24 1715.71 1060.2 1753.18 1050.75 1827.93" stroke="#2069E0"/>
<path d="M201.859 -22.9024C147.176 77.0872 68.8855 309.824 167.213 453.214C289.609 630.704 530.038 408.602 725.003 445.785C919.967 482.967 843.161 708.209 1048.04 921.611C1190.3 1067.28 994.347 1175.39 1053.03 1298.93C1173.99 1521.14 1367.5 1507.5 1259.96 1602.28C1152.42 1697.07 1089.39 1734.54 1079.94 1809.29" stroke="#2069E0"/>
<path d="M231.087 -41.5702C176.404 58.4194 95.5162 292.392 196.441 434.546C322.339 611.364 569.922 370.903 764.886 408.085C959.851 445.268 873.566 683.258 1079.04 902.773C1219.37 1051.38 1004.99 1162.79 1069.79 1284.2C1199.4 1511.61 1396.73 1488.83 1289.19 1583.61C1181.65 1678.4 1118.61 1715.87 1109.17 1790.62" stroke="#2069E0"/>
</svg>
