<svg width="406" height="280" viewBox="0 0 406 280" fill="none" xmlns="http://www.w3.org/2000/svg">
<path d="M206.035 -115.316C249.924 -68.443 316.71 -27.0802 311.585 5.31433C305.178 45.8075 420.973 130.599 309.059 148.398C200.198 165.711 261.345 141.893 156.382 198.506C55.3181 253.016 202.951 311.321 90.6447 335.833" stroke="#2069E0"/>
<path d="M432.656 5.41717C449.566 20.5451 485.528 55.3651 494.091 73.6215C504.796 96.4419 483.691 79.5331 503.713 112.259C523.734 144.984 513.188 133.129 539.018 167.274C564.849 201.419 581.069 190.126 574.504 219.654C567.94 249.181 559.959 229.707 563.411 272.197C566.862 314.687 589.145 311.06 564.55 328.553C539.955 346.047 566.784 362.293 510.622 353.105C454.46 343.917 459.604 321.876 409.917 337.568C360.23 353.259 418.309 374.255 350.952 372.64C283.596 371.025 303.093 348.368 257.709 370.884C221.402 388.897 200.218 402.124 194.165 406.487" stroke="#2069E0"/>
<path d="M217.832 -108.903C232.604 -93.3094 250.952 -77.0592 266.681 -62.5384C282.544 -47.7323 295.512 -36.1033 306.851 -22.1863C318.19 -8.26937 323.42 2.04719 323.433 14.3045C323.045 29.0927 334.786 45.6554 345.682 65.5196C356.579 85.3837 367.967 102.935 368.499 121.246C369.031 139.556 359.17 151.87 322.66 158.525C287.104 165.029 272.471 167.17 258.689 167.658C244.908 168.146 240.996 167.767 228.026 173.904C215.055 180.041 203.187 190.666 166.176 208.257C114.592 233.708 126.725 258.733 133.486 283.066C140.814 307.117 147.77 327.354 94.7478 339.116" stroke="#2069E0"/>
<path d="M229.637 -102.488C244.552 -86.9259 264.074 -69.4377 279.325 -54.6678C294.844 -39.3274 305.54 -29.601 317.458 -14.4301C329.376 0.74075 333.554 9.57921 335.288 23.2957C336.648 39.3744 348.688 54.08 358.42 74.5884C368.153 95.0968 378.249 110.18 378.976 130.102C379.703 150.024 371.985 161.276 336.269 168.654C301.444 175.89 289.575 178.971 272.968 178.814C256.361 178.657 253.053 176.834 237.635 183.608C222.216 190.382 215.011 201.699 175.978 218.009C123.342 241.655 135.966 263.502 139.251 287.713C143.669 311.362 148.749 331.132 98.8586 342.401" stroke="#2069E0"/>
<path d="M241.434 -96.0747C256.491 -80.5433 277.187 -61.8172 291.961 -46.7983C307.136 -30.9236 315.56 -23.0997 328.057 -6.67489C340.554 9.74988 343.681 17.1103 347.136 32.286C350.244 49.6551 362.582 62.5037 371.15 83.6563C379.719 104.809 388.524 117.424 389.445 138.958C390.367 160.492 384.792 170.681 349.87 178.781C315.776 186.75 306.671 190.772 287.239 189.97C267.807 189.168 265.102 185.901 247.236 193.311C229.37 200.722 226.828 212.73 185.771 227.76C132.085 249.602 145.199 268.27 145.007 292.36C146.517 315.606 149.721 334.909 102.962 345.685" stroke="#2069E0"/>
<path d="M253.23 -89.6606C268.43 -74.1603 290.301 -54.1962 304.597 -38.9282C319.428 -22.5192 325.581 -16.5978 338.657 1.08085C351.732 18.7595 353.807 24.6418 358.983 41.2767C363.839 59.9362 376.476 70.9278 383.88 92.7246C391.285 114.521 398.799 124.668 399.915 147.814C401.031 170.96 397.599 180.086 363.471 188.909C330.108 197.611 323.767 202.573 301.51 201.126C279.252 199.678 277.151 194.967 256.837 203.015C236.523 211.063 238.645 223.762 195.565 237.512C140.827 257.549 154.432 273.038 150.764 297.007C149.365 319.851 150.693 338.686 107.065 348.969" stroke="#2069E0"/>
<path d="M265.031 -83.2473C280.374 -67.778 303.419 -46.5759 317.237 -31.0589C331.724 -14.1156 335.606 -10.0967 349.26 8.83584C362.915 27.7684 363.937 32.1726 370.835 50.2667C377.439 70.2167 390.374 79.3512 396.614 101.792C402.854 124.233 409.077 131.911 410.388 156.669C411.699 181.428 410.41 189.491 377.077 199.036C344.443 208.47 340.867 214.373 315.784 212.281C290.701 210.188 289.204 204.033 266.443 212.718C243.681 221.402 250.466 234.793 205.363 247.263C149.573 265.496 163.669 277.806 156.525 301.654C152.217 324.095 151.669 342.463 111.172 352.252" stroke="#2069E0"/>
<path d="M276.832 -76.8325C292.317 -61.3942 316.536 -38.9541 329.876 -23.1881C344.02 -5.71054 345.63 -3.59417 359.863 16.5923C374.097 36.7788 374.068 39.7049 382.686 59.2581C391.038 80.4986 404.272 87.776 409.348 110.861C414.424 133.947 419.356 139.156 420.861 165.526C422.367 191.896 423.221 198.897 390.682 209.165C358.779 219.332 357.967 226.175 330.059 223.437C302.151 220.7 301.257 213.101 276.048 222.422C250.838 231.744 262.286 245.826 215.16 257.015C158.319 273.444 172.906 282.575 162.286 306.302C155.068 328.341 152.644 346.241 115.279 355.537" stroke="#2069E0"/>
<path d="M288.631 -70.4187C304.258 -55.0115 329.652 -31.3334 342.514 -15.3183C356.314 2.69356 355.653 2.90741 370.465 24.3478C385.277 45.7882 384.196 47.2362 394.536 68.2486C404.636 90.7795 418.168 96.1999 422.08 119.929C425.992 143.659 429.633 146.4 431.333 174.382C433.033 202.364 436.029 208.302 404.285 219.293C373.113 230.192 375.065 237.975 344.332 234.593C313.598 231.21 313.309 222.167 285.651 232.126C257.994 242.084 274.105 256.858 224.956 266.766C167.063 281.391 182.141 287.343 168.044 310.949C157.918 332.585 153.618 350.018 119.384 358.821" stroke="#2069E0"/>
<path d="M300.43 -64.0051C316.2 -48.6289 342.767 -23.7128 355.152 -7.44874C368.608 11.0974 365.675 9.40874 381.066 32.103C396.457 54.7973 394.325 54.7672 406.386 77.2388C418.233 101.06 432.064 104.624 434.812 128.997C437.56 153.371 439.909 153.644 441.804 183.238C443.699 212.832 448.838 217.707 417.888 229.42C387.447 241.052 392.163 249.776 358.604 245.748C325.045 241.721 325.36 231.233 295.255 241.829C265.149 252.424 285.924 267.889 234.751 276.517C175.807 289.337 191.376 292.111 173.803 315.596C160.768 336.829 154.592 353.795 123.489 362.104" stroke="#2069E0"/>
<path d="M312.229 -57.5903C328.141 -42.2452 355.883 -16.0911 367.79 0.422051C380.902 19.5025 375.698 15.9113 391.667 39.8595C407.637 63.8077 404.453 62.2995 418.235 86.2302C431.831 111.342 445.96 113.048 447.544 138.066C449.128 163.084 450.186 160.889 452.275 192.095C454.365 223.301 461.647 227.113 431.492 239.549C401.781 251.914 409.261 261.577 372.877 256.905C336.493 252.232 337.411 240.301 304.858 251.533C272.305 262.766 297.742 278.922 244.547 286.27C184.551 297.285 200.612 296.88 179.562 320.244C163.618 341.075 155.566 357.573 127.594 365.389" stroke="#2069E0"/>
<path d="M324.029 -51.1768C340.084 -35.8626 369 -8.47055 380.43 8.29161C393.198 27.9063 385.722 22.4126 402.271 47.6147C418.819 72.8168 414.583 69.8305 430.087 95.2205C445.43 121.623 459.858 121.472 460.278 147.134C460.698 172.796 460.465 168.132 462.749 200.95C465.033 233.768 474.458 236.518 445.097 249.676C416.117 262.774 426.361 273.378 387.152 268.06C347.942 262.742 349.464 249.367 314.463 261.236C279.463 273.106 309.563 289.954 254.345 296.021C193.297 305.232 209.849 301.648 185.322 324.891C166.469 345.319 156.542 361.35 131.701 368.673" stroke="#2069E0"/>
<path d="M336.268 -44.5528C352.466 -29.2697 382.556 -0.639683 393.508 16.3715C405.932 36.5205 396.185 29.1243 413.312 55.5803C430.439 82.0363 425.152 77.5719 442.376 104.421C459.467 132.114 474.194 130.106 473.45 156.412C472.706 182.719 471.181 175.586 473.66 210.016C476.138 244.446 487.707 246.133 459.14 260.014C430.891 273.844 443.899 285.388 401.864 279.426C359.829 273.463 361.955 258.643 324.506 271.15C287.058 283.656 321.822 301.195 264.58 305.982C202.481 313.389 219.523 306.626 191.521 329.748C169.759 349.773 157.955 365.338 136.246 372.167" stroke="#2069E0"/>
<path d="M355.545 -34.5582C371.885 -19.3061 403.15 10.562 413.624 27.8222C425.704 48.5055 413.686 39.2068 431.392 66.9166C449.098 94.6265 442.758 88.6841 461.704 116.992C480.543 145.976 495.569 142.111 493.661 169.061C491.752 196.012 488.937 186.411 491.61 222.453C494.283 258.495 507.994 259.119 480.221 273.723C452.703 288.285 468.476 300.77 423.615 294.162C378.755 287.554 381.484 271.291 341.588 284.434C301.692 297.578 341.119 315.808 281.854 319.314C218.704 324.917 236.237 314.976 204.758 337.976C180.087 357.599 166.407 372.696 147.829 379.031" stroke="#2069E0"/>
<path d="M374.823 -24.5647C391.305 -9.34364 423.744 21.7624 433.74 39.2716C445.476 60.4892 431.186 49.288 449.472 78.2518C467.757 107.216 460.365 99.795 481.032 129.562C501.619 159.836 516.943 154.114 513.871 181.709C510.799 209.304 506.692 197.235 509.559 234.889C512.427 272.543 528.281 272.104 501.303 287.43C474.516 302.725 493.052 316.15 445.367 308.897C397.681 301.645 401.014 283.937 358.67 297.717C316.326 311.498 360.416 330.419 299.128 332.645C234.926 336.443 252.95 323.323 217.995 346.203C190.415 365.423 174.86 380.052 159.413 385.895" stroke="#2069E0"/>
<path d="M394.1 -14.571C410.725 0.619036 444.338 32.9631 453.857 50.7214C465.249 72.4732 448.687 59.3695 467.551 89.5872C486.415 119.805 477.972 110.906 500.36 142.133C522.695 173.697 538.318 166.118 534.081 194.357C529.845 222.596 524.447 208.058 527.509 247.324C530.572 286.59 548.569 285.089 522.385 301.138C496.328 317.166 517.629 331.531 467.118 323.633C416.607 315.735 420.543 296.583 375.752 311C330.96 325.418 379.713 345.031 316.402 345.977C251.149 347.97 269.664 331.671 231.233 354.429C200.744 373.247 183.312 387.409 170.996 392.758" stroke="#2069E0"/>
<path d="M413.377 -4.57751C430.145 10.5815 464.932 44.1635 473.973 62.1708C485.021 84.457 466.188 69.4507 485.631 100.922C505.074 132.394 495.579 122.017 519.688 154.703C543.771 187.557 559.693 178.122 554.292 207.005C548.891 235.888 542.202 218.882 545.459 259.76C548.716 300.638 568.856 298.074 543.467 314.845C518.14 331.605 542.205 346.911 488.869 338.368C435.533 329.825 440.073 309.229 392.833 324.283C345.594 339.338 399.01 359.642 333.676 359.308C267.371 359.497 286.377 340.019 244.47 362.656C211.072 381.071 191.764 394.766 182.58 399.622" stroke="#2069E0"/>
</svg>
