<svg width="460" height="280" viewBox="0 0 460 280" fill="none" xmlns="http://www.w3.org/2000/svg">
<path d="M731.611 40.9419C667.263 52.4627 597.115 88.1058 569.532 63.8706C535.053 33.5765 401.311 87.4711 438.12 -24.9112C473.924 -134.227 466.875 -64.3051 464.398 -193.837C462.013 -318.558 337.655 -219.742 368.429 -336.538" stroke="#2069E0"/>
<path d="M511.77 173.747C489.694 179.958 440.293 191.566 419.293 188.307C393.044 184.233 418.768 175.29 378.9 173.689C339.032 172.088 355.043 169.677 311.093 172.494C267.143 175.31 269.884 196.865 245.644 173.056C221.403 149.246 243.254 153.771 202.229 131.222C161.203 108.673 153.951 131.099 149.452 98.1918C144.954 65.284 117.118 79.826 152.383 34.3822C187.649 -11.0617 205.627 6.93134 214.75 -47.6717C223.872 -102.275 176.749 -62.2271 210.328 -122.414C243.908 -182.601 255.62 -151.202 256.368 -206.023C256.966 -249.879 254.796 -277.11 253.636 -285.244" stroke="#2069E0"/>
<path d="M720.047 47.7783C698.558 51.7668 674.758 58.6052 653.807 64.1106C632.529 69.565 615.574 74.3111 597.275 76.1956C578.975 78.08 566.922 76.5931 555.555 69.1956C542.034 59.9047 521.091 60.5547 497.49 58.4423C473.889 56.3299 452.197 56.0613 434.973 45.4768C417.749 34.8924 411.032 18.495 422.254 -18.6811C433.161 -54.899 438.147 -69.4807 444.258 -82.2899C450.37 -95.0992 452.585 -98.4221 453.075 -113.91C453.565 -129.397 449.37 -146.597 450.694 -190.837C451.675 -253.061 422.702 -257.171 396.929 -265.74C371.147 -273.624 349.077 -279.54 363.43 -334.796" stroke="#2069E0"/>
<path d="M708.48 54.6187C686.953 58.7553 661.445 65.9117 640.492 70.8327C618.882 75.6519 604.773 79.4855 585.035 81.1375C565.297 82.7896 555.116 81.2411 541.577 74.5246C526.026 66.0408 506.662 68.0844 483.019 64.5256C459.375 60.9667 440.586 61.0177 421.775 49.6356C402.964 38.2535 396.212 24.4444 406.386 -12.4472C416.266 -48.4444 419.063 -61.0845 427.119 -76.0694C435.174 -91.0543 438.439 -92.9561 439.505 -111.051C440.571 -129.147 433.514 -142.529 436.989 -187.833C440.142 -249.922 413.882 -251.664 389.877 -263.316C365.853 -273.598 345.111 -280.936 358.429 -333.05" stroke="#2069E0"/>
<path d="M696.918 61.4546C675.351 65.7394 648.137 73.2137 627.18 77.5505C605.239 81.7345 593.975 84.6554 572.799 86.0751C551.624 87.4949 543.313 85.8848 527.602 79.8491C510.023 72.1725 492.238 75.6098 468.552 70.6045C444.865 65.5992 428.979 65.9697 408.582 53.79C388.184 41.6103 381.396 30.3894 390.522 -6.21766C399.375 -41.9942 399.984 -52.6927 409.983 -69.8532C419.982 -87.0138 424.298 -87.4945 425.94 -108.197C427.581 -128.9 417.662 -138.467 423.287 -184.833C428.614 -246.786 405.065 -246.161 382.829 -260.897C360.564 -273.577 341.148 -282.336 353.432 -331.309" stroke="#2069E0"/>
<path d="M685.354 68.2905C663.747 72.7235 634.827 80.5158 613.867 84.2682C591.594 87.817 583.175 89.8253 560.562 91.0127C537.949 92.2001 531.508 90.5284 513.625 85.1737C494.018 78.3042 477.811 83.1352 454.082 76.6834C430.354 70.2317 417.371 70.9218 395.386 57.9444C373.402 44.967 366.578 36.3344 374.656 0.0118921C382.482 -35.5439 380.903 -44.3009 392.846 -63.6371C404.788 -82.9732 410.155 -82.0329 412.372 -105.344C414.589 -128.654 401.808 -134.404 409.583 -181.834C417.084 -243.651 396.247 -240.658 375.779 -258.478C355.273 -273.556 337.183 -283.736 348.433 -329.567" stroke="#2069E0"/>
<path d="M673.789 75.1284C652.144 79.7096 621.517 87.8198 600.553 90.9879C577.949 93.9015 572.375 94.9972 548.324 95.9523C524.273 96.9073 519.704 95.174 499.648 90.5002C478.012 84.4379 463.385 90.6625 439.613 82.7643C415.842 74.8661 405.762 75.8758 382.191 62.1007C358.619 48.3257 351.76 42.2813 358.79 6.2434C365.589 -29.0917 361.822 -35.9071 375.708 -57.419C389.594 -78.9308 396.012 -76.5694 398.804 -102.488C401.597 -128.406 385.954 -130.34 395.879 -178.832C405.553 -240.514 387.429 -235.154 368.729 -256.057C349.981 -273.533 333.218 -285.134 343.434 -327.824" stroke="#2069E0"/>
<path d="M662.223 81.9673C640.538 86.6966 608.204 95.1247 587.238 97.7086C564.302 99.987 561.574 100.17 536.085 100.893C510.596 101.616 507.897 99.8206 485.67 95.8277C462.005 90.5725 448.957 98.1908 425.142 88.8461C401.328 79.5015 394.151 80.8307 368.993 66.2581C343.835 51.6854 336.94 48.2292 342.922 12.4759C348.694 -22.6386 342.739 -27.5124 358.568 -51.1998C374.398 -74.8873 381.867 -71.1049 385.235 -99.6309C388.602 -128.157 370.098 -126.274 382.174 -175.83C394.021 -237.375 378.609 -229.648 361.677 -253.635C344.688 -273.509 329.252 -286.531 338.434 -326.079" stroke="#2069E0"/>
<path d="M650.657 88.8037C628.934 93.6812 594.893 102.427 573.923 104.427C550.656 106.07 550.773 105.34 523.846 105.831C496.919 106.321 496.092 104.465 471.692 101.153C445.999 96.7047 434.529 105.717 410.672 94.9255C386.816 84.1344 382.541 85.7832 355.796 70.4129C329.052 55.0427 322.121 54.1747 327.055 18.7059C331.8 -16.1879 323.656 -19.1201 341.43 -44.9832C359.203 -70.8463 367.723 -65.6428 371.666 -96.7766C375.609 -127.91 354.243 -122.211 368.469 -172.83C382.489 -234.239 369.79 -224.145 354.626 -251.215C339.396 -273.488 325.286 -287.93 333.434 -324.338" stroke="#2069E0"/>
<path d="M639.094 95.6411C617.331 100.667 581.584 109.731 560.61 111.146C537.012 112.154 539.974 110.512 511.609 110.77C483.245 111.028 484.288 109.11 457.716 106.479C429.994 102.838 420.104 113.243 396.204 101.006C372.305 88.7683 370.933 90.7367 342.602 74.5688C314.27 58.4009 307.304 60.1211 311.189 24.9369C314.907 -9.73621 304.576 -10.7269 324.293 -38.7656C344.01 -66.8043 353.581 -60.1798 358.099 -93.9213C362.618 -127.663 338.39 -118.147 354.766 -169.829C370.96 -231.103 360.973 -218.641 347.577 -248.794C334.105 -273.466 321.322 -289.329 328.436 -322.595" stroke="#2069E0"/>
<path d="M627.528 102.479C605.727 107.652 568.272 117.034 547.296 117.865C523.366 118.238 529.173 115.683 499.371 115.709C469.568 115.735 472.483 113.755 443.738 111.805C413.988 108.971 405.676 120.77 381.734 107.086C357.792 93.4022 359.323 95.6902 329.405 78.7247C299.487 61.7591 292.485 66.0676 295.322 31.1679C298.013 -3.28451 285.494 -2.33362 307.154 -32.548C328.815 -62.7623 339.437 -54.7167 344.531 -91.0659C349.625 -127.415 322.535 -114.083 341.062 -166.828C359.428 -227.966 352.154 -213.137 340.526 -246.374C328.813 -273.443 317.357 -290.727 323.436 -320.852" stroke="#2069E0"/>
<path d="M615.963 109.316C594.122 114.638 554.961 124.338 533.981 124.585C509.72 124.323 518.373 120.855 487.132 120.649C455.892 120.442 460.677 118.401 429.76 117.131C397.982 115.105 391.249 128.298 367.264 113.167C343.28 98.0367 347.714 100.644 316.209 82.881C284.704 65.1178 277.666 72.0145 279.455 37.3994C281.119 3.16768 266.412 6.06016 290.016 -26.3298C313.62 -58.7198 325.293 -49.2532 330.962 -88.2101C336.632 -127.167 306.68 -110.018 327.357 -163.826C347.897 -224.828 343.335 -207.633 333.475 -243.953C323.521 -273.42 313.391 -292.125 318.436 -319.108" stroke="#2069E0"/>
<path d="M603.995 116.426C582.115 121.897 541.247 131.914 520.264 131.577C495.672 130.679 507.169 126.299 474.491 125.86C441.813 125.421 448.469 123.318 415.38 122.73C381.573 121.511 376.419 136.097 352.392 119.52C328.364 102.943 335.701 105.87 302.609 87.3095C269.518 68.7487 262.444 78.2337 263.186 43.9031C263.822 9.89203 246.927 14.7261 272.474 -19.8396C298.022 -54.4052 310.746 -43.5175 316.991 -85.082C323.236 -126.647 290.422 -105.681 313.25 -160.553C335.963 -221.419 334.113 -201.856 326.021 -241.259C317.826 -273.125 309.023 -293.251 313.034 -317.092" stroke="#2069E0"/>
<path d="M585.549 127.89C563.63 133.509 521.056 143.844 500.07 142.923C475.146 141.39 489.489 136.097 455.372 135.426C421.256 134.754 429.783 132.59 394.522 132.682C358.686 132.27 355.112 148.25 331.042 130.227C306.972 112.204 317.211 115.45 282.533 96.0918C247.855 76.7333 240.745 88.8065 240.438 54.7606C240.048 20.9701 220.964 27.7458 248.456 -8.9955C275.947 -45.7368 289.722 -33.428 296.542 -77.6003C303.363 -121.773 267.687 -96.9907 292.665 -152.925C317.551 -213.656 318.414 -191.725 312.09 -234.212C305.653 -268.476 298.177 -290.023 301.154 -310.723" stroke="#2069E0"/>
<path d="M567.106 139.354C545.148 145.12 500.867 155.774 479.877 154.268C454.622 152.1 471.81 145.894 436.256 144.991C400.702 144.087 411.1 141.861 373.666 142.634C335.802 143.029 333.806 160.403 309.694 140.933C285.581 121.463 298.723 125.03 262.458 104.874C226.193 84.7175 219.048 99.3789 217.693 65.6175C216.276 32.0478 195.004 40.7649 224.439 1.84804C253.874 -37.0689 268.699 -23.339 276.096 -70.119C283.492 -116.899 244.954 -88.3007 272.082 -145.298C299.142 -205.893 302.717 -181.595 298.161 -227.166C293.483 -263.828 287.333 -286.796 289.276 -304.354" stroke="#2069E0"/>
<path d="M548.66 150.818C526.663 156.733 480.675 167.704 459.682 165.614C434.096 162.81 454.129 155.693 417.137 154.557C380.145 153.421 392.414 151.133 352.809 152.587C312.916 153.789 312.499 172.557 288.344 151.641C264.188 130.724 280.234 134.61 242.382 113.656C204.53 92.7026 197.349 109.952 194.946 76.4754C192.502 43.1264 169.042 53.7851 200.421 12.6926C231.799 -28.4 247.675 -13.2491 255.647 -62.6367C263.619 -112.024 222.219 -79.6097 251.498 -137.67C280.73 -198.129 287.018 -171.465 284.23 -220.118C281.311 -259.178 276.487 -283.568 277.396 -297.984" stroke="#2069E0"/>
<path d="M530.215 162.283C508.179 168.346 460.484 179.636 439.488 176.961C413.57 173.522 436.448 165.492 398.019 164.124C359.589 162.755 373.729 160.406 331.951 162.541C290.029 164.55 291.192 184.712 266.994 162.349C242.796 139.986 261.744 144.191 222.305 122.44C182.867 100.689 175.65 120.527 172.199 87.3343C168.728 54.206 143.08 66.8063 176.402 23.5381C209.724 -19.7301 226.651 -3.15811 235.198 -55.1535C243.746 -107.149 199.484 -70.9177 230.913 -130.042C262.319 -190.364 271.319 -161.333 270.299 -213.07C269.139 -254.528 265.642 -280.338 265.516 -291.613" stroke="#2069E0"/>
</svg>
