<svg width="48" height="48" viewBox="0 0 48 48" fill="none" xmlns="http://www.w3.org/2000/svg">
<rect x="0.5" y="0.5" width="47" height="47" rx="7.5" fill="white" stroke="#1E1E1E"/>
<g clip-path="url(#clip0_173_3100)">
<path d="M32 15H16C15.7348 15 15.4804 15.1054 15.2929 15.2929C15.1054 15.4804 15 15.7348 15 16V19C15 19.2652 15.1054 19.5196 15.2929 19.7071C15.4804 19.8946 15.7348 20 16 20C16.2652 20 16.5196 19.8946 16.7071 19.7071C16.8946 19.5196 17 19.2652 17 19V17H23V30H21C20.7348 30 20.4804 30.1054 20.2929 30.2929C20.1054 30.4804 20 30.7348 20 31C20 31.2652 20.1054 31.5196 20.2929 31.7071C20.4804 31.8946 20.7348 32 21 32H27C27.2652 32 27.5196 31.8946 27.7071 31.7071C27.8946 31.5196 28 31.2652 28 31C28 30.7348 27.8946 30.4804 27.7071 30.2929C27.5196 30.1054 27.2652 30 27 30H25V17H31V19C31 19.2652 31.1054 19.5196 31.2929 19.7071C31.4804 19.8946 31.7348 20 32 20C32.2652 20 32.5196 19.8946 32.7071 19.7071C32.8946 19.5196 33 19.2652 33 19V16C33 15.7348 32.8946 15.4804 32.7071 15.2929C32.5196 15.1054 32.2652 15 32 15Z" fill="#1E1E1E"/>
</g>
<defs>
<clipPath id="clip0_173_3100">
<rect width="24" height="24" fill="white" transform="translate(12 11)"/>
</clipPath>
</defs>
</svg>
