<svg width="48" height="48" viewBox="0 0 48 48" fill="none" xmlns="http://www.w3.org/2000/svg">
<rect x="0.5" y="0.5" width="47" height="47" rx="7.5" fill="white" stroke="#1E1E1E"/>
<g clip-path="url(#clip0_173_3095)">
<path d="M32.707 14.292C32.5868 14.1722 32.4381 14.0849 32.2749 14.0383C32.1117 13.9918 31.9393 13.9876 31.774 14.026C31.598 14.066 27.428 15.047 23.548 17.011C23.3832 17.0946 23.2447 17.2221 23.1479 17.3796C23.0512 17.5371 23 17.7182 23 17.903V19.575L22.228 18.779C22.0592 18.6057 21.8334 18.4992 21.5922 18.4794C21.3511 18.4595 21.1109 18.5276 20.916 18.671C20.338 19.097 19.864 19.498 19.466 19.896C15.661 23.701 15.777 26.966 17.143 28.858L14 32V35L18.782 30.219C19.4408 30.5428 20.1649 30.7117 20.899 30.713C22.28 30.713 24.478 30.162 27.105 27.535C30.999 23.641 32.896 15.566 32.975 15.225C33.0129 15.0596 33.0083 14.8871 32.9614 14.724C32.9145 14.5608 32.827 14.4122 32.707 14.292ZM25.69 26.12C23.547 28.263 21.901 28.713 20.898 28.713C20.149 28.713 19.479 28.456 19.011 27.989C17.902 26.878 17.725 24.463 20.878 21.31C21.0509 21.1388 21.2308 20.9747 21.417 20.818L23.281 22.738C23.4195 22.8813 23.5977 22.98 23.7927 23.0213C23.9877 23.0626 24.1905 23.0447 24.3753 22.9699C24.56 22.8951 24.7182 22.7668 24.8295 22.6015C24.9408 22.4362 25.0002 22.2414 25 22.042V18.526C27.055 17.544 29.171 16.838 30.579 16.422C29.84 18.915 28.193 23.617 25.69 26.12Z" fill="#1E1E1E"/>
</g>
<defs>
<clipPath id="clip0_173_3095">
<rect width="24" height="24" fill="white" transform="translate(12 12)"/>
</clipPath>
</defs>
</svg>
