<svg width="988" height="817" viewBox="0 0 988 817" fill="none" xmlns="http://www.w3.org/2000/svg">
<path d="M-636.299 520.549C-653.965 602.203 -629.639 759.977 -558.573 874.742C-477.553 1005.58 -375.308 1082.43 -227.515 1079.78C-79.7208 1077.13 -9.31736 1048.86 150.45 1090.42C298.018 1128.81 418.372 1138.54 412.417 1267.4C407.926 1364.58 529.115 1463.23 472.432 1549.17C415.749 1635.12 378.626 1672.24 387.954 1728.46" stroke="#2069E0"/>
<path d="M-294.506 153.006C-312.172 234.66 -321.359 419.814 -216.78 507.199C-86.0566 616.43 40.8254 387.714 188.619 385.064C336.413 382.413 321.768 580.829 518.118 714.563C649.999 804.387 507.79 924.133 584.331 1000.67C733.571 1149.91 870.909 1095.68 814.225 1181.63C757.542 1267.58 720.419 1304.7 729.747 1360.92" stroke="#2069E0"/>
<path d="M-622.052 505.075C-639.718 586.729 -616.988 745.806 -544.326 859.268C-460.939 989.081 -357.521 1051.37 -209.728 1048.72C-61.9338 1046.07 4.41965 1028.6 165.929 1074.55C312.75 1115.39 420.601 1130.36 418.575 1256.72C421.404 1356.39 543.362 1447.75 486.679 1533.7C429.996 1619.64 392.873 1656.77 402.201 1712.99" stroke="#2069E0"/>
<path d="M-607.307 489.101C-624.973 570.755 -603.839 731.137 -529.581 843.294C-443.827 972.078 -339.237 1019.82 -191.443 1017.17C-43.6489 1014.52 18.6547 1007.84 181.906 1058.18C327.98 1101.47 423.328 1121.68 425.23 1245.55C435.38 1347.7 558.107 1431.78 501.424 1517.72C444.741 1603.67 407.618 1640.79 416.946 1697.01" stroke="#2069E0"/>
<path d="M-592.135 472.707C-609.801 554.361 -590.262 716.046 -514.409 826.9C-426.288 954.655 -320.524 987.848 -172.73 985.197C-24.9363 982.547 33.3174 986.665 198.311 1041.39C343.638 1087.13 426.483 1112.57 432.313 1233.96C449.783 1338.58 573.28 1415.38 516.597 1501.33C459.913 1587.28 422.79 1624.4 432.119 1680.62" stroke="#2069E0"/>
<path d="M-576.627 455.971C-594.293 537.625 -576.35 700.614 -498.901 810.164C-408.414 936.89 -301.477 955.532 -153.683 952.882C-5.88888 950.231 48.3149 965.144 215.05 1024.26C359.63 1072.45 429.972 1103.13 439.731 1222.02C464.522 1329.13 588.787 1398.65 532.104 1484.59C475.42 1570.54 438.298 1607.66 447.626 1663.88" stroke="#2069E0"/>
<path d="M-560.841 438.96C-578.507 520.614 -562.16 684.907 -483.115 793.153C-390.261 918.85 -282.15 922.942 -134.357 920.291C13.4373 917.641 63.5912 943.347 232.069 1006.85C375.902 1057.49 433.741 1093.41 447.428 1209.81C479.539 1319.39 604.573 1381.64 547.89 1467.58C491.207 1553.53 454.084 1590.65 463.412 1646.87" stroke="#2069E0"/>
<path d="M-544.839 421.731C-562.505 503.384 -547.754 668.981 -467.113 775.924C-371.891 900.591 -262.608 890.132 -114.814 887.482C32.9797 884.832 79.0836 921.332 249.303 989.228C392.389 1042.31 437.725 1083.47 455.34 1197.39C494.772 1309.44 620.576 1364.41 563.892 1450.35C507.209 1536.3 470.086 1573.42 479.415 1629.64" stroke="#2069E0"/>
<path d="M-528.659 404.327C-546.325 485.981 -533.17 652.882 -450.933 758.52C-353.345 882.158 -242.888 857.149 -95.0942 854.499C52.6997 851.848 94.7536 899.143 266.715 971.429C409.054 1026.96 441.887 1073.36 463.431 1184.78C510.183 1299.32 636.756 1347 580.072 1432.95C523.389 1518.9 486.266 1556.02 495.595 1612.24" stroke="#2069E0"/>
<path d="M-512.339 386.781C-530.005 468.434 -518.446 636.639 -434.613 740.973C-334.658 863.583 -223.028 824.023 -75.2342 821.373C72.5596 818.722 110.564 876.812 284.267 953.486C425.859 1011.47 446.189 1063.11 471.661 1172.04C525.734 1289.05 653.076 1329.46 596.392 1415.4C539.709 1501.35 502.586 1538.47 511.914 1594.69" stroke="#2069E0"/>
<path d="M-495.91 369.123C-513.576 450.777 -503.612 620.285 -418.184 723.316C-315.862 844.896 -203.059 790.786 -55.2652 788.136C92.5287 785.485 126.483 854.369 301.929 935.433C442.773 995.864 450.6 1052.74 480.001 1159.18C541.394 1278.68 669.505 1311.8 612.821 1397.75C556.138 1483.69 519.015 1520.82 528.343 1577.04" stroke="#2069E0"/>
<path d="M-479.385 351.373C-497.051 433.027 -488.683 603.839 -401.659 705.566C-296.97 826.118 -182.994 757.457 -35.2001 754.806C112.594 752.156 142.498 831.834 319.686 917.287C459.784 980.168 455.107 1042.29 488.436 1146.23C557.151 1268.21 686.03 1294.05 629.346 1380C572.663 1465.94 535.54 1503.07 544.868 1559.29" stroke="#2069E0"/>
<path d="M-462.784 333.547C-480.45 415.201 -473.679 587.317 -385.059 687.74C-278.003 807.262 -162.853 724.051 -15.0595 721.401C132.734 718.75 158.589 809.223 337.518 899.065C476.869 964.395 459.69 1031.75 496.947 1133.21C572.982 1257.66 702.63 1276.22 645.947 1362.17C589.263 1448.12 552.141 1485.24 561.469 1541.46" stroke="#2069E0"/>
<path d="M-446.124 315.659C-463.79 397.313 -458.614 570.733 -368.398 669.852C-258.976 788.345 -142.653 690.583 5.14091 687.933C152.935 685.283 174.739 786.549 355.411 880.781C494.015 948.56 464.333 1021.16 505.518 1120.12C588.874 1247.05 719.291 1258.34 662.607 1344.28C605.924 1430.23 568.801 1467.35 578.129 1523.57" stroke="#2069E0"/>
<path d="M-429.412 297.72C-447.078 379.374 -443.498 554.097 -351.686 651.913C-239.897 769.377 -122.401 657.064 25.3928 654.414C173.187 651.764 190.941 763.825 373.355 862.445C511.212 932.674 469.027 1010.51 514.141 1106.98C604.817 1236.39 736.002 1240.4 679.319 1326.34C622.636 1412.29 585.513 1449.41 594.841 1505.63" stroke="#2069E0"/>
<path d="M-412.652 279.734C-430.318 361.388 -428.334 537.415 -334.926 633.927C-220.77 750.362 -102.101 623.499 45.6929 620.849C193.487 618.199 207.191 741.054 391.347 844.063C528.457 916.742 473.769 999.816 522.811 1093.8C620.808 1225.69 752.763 1222.41 696.079 1308.36C639.396 1394.3 602.273 1431.43 611.601 1487.65" stroke="#2069E0"/>
<path d="M-395.859 261.713C-413.525 343.367 -413.137 520.698 -318.133 615.906C-201.611 731.312 -81.768 589.898 66.0259 587.248C213.82 584.597 223.474 718.247 409.372 825.646C545.735 900.774 478.544 989.087 531.515 1080.58C636.832 1214.94 769.555 1204.39 712.872 1290.34C656.189 1376.28 619.066 1413.41 628.394 1469.63" stroke="#2069E0"/>
<path d="M-379.041 243.67C-396.706 325.323 -397.914 503.958 -301.315 597.862C-182.425 712.239 -61.4093 556.275 86.3846 553.625C234.178 550.975 239.783 695.418 427.423 807.207C563.039 884.784 483.345 978.336 540.244 1067.33C652.881 1204.18 786.374 1186.35 729.691 1272.29C673.007 1358.24 635.885 1395.36 645.213 1451.58" stroke="#2069E0"/>
<path d="M-362.19 225.593C-379.856 307.247 -382.659 487.186 -284.464 579.786C-163.208 693.134 -41.0187 522.62 106.775 519.969C254.569 517.319 256.124 672.557 445.506 788.734C580.375 868.761 488.177 967.552 549.005 1054.06C668.963 1193.38 803.225 1168.27 746.541 1254.22C689.858 1340.16 652.735 1377.29 662.064 1433.51" stroke="#2069E0"/>
<path d="M-345.308 207.487C-362.974 289.141 -367.373 470.383 -267.582 561.68C-143.959 673.999 -20.5969 488.934 127.197 486.283C274.991 483.633 272.496 649.665 463.62 770.232C597.742 852.708 493.041 956.738 557.797 1040.75C685.076 1182.56 820.106 1150.16 763.423 1236.11C706.74 1322.06 669.617 1359.18 678.945 1415.4" stroke="#2069E0"/>
<path d="M-328.401 189.353C-346.067 271.006 -352.062 453.553 -250.675 543.546C-124.685 654.835 -0.149959 455.22 147.644 452.569C295.438 449.919 288.893 626.746 481.759 751.701C615.134 836.627 497.93 945.895 566.614 1027.42C701.214 1171.7 837.013 1132.03 780.33 1217.98C723.647 1303.92 686.524 1341.05 695.852 1397.27" stroke="#2069E0"/>
<path d="M-311.466 171.192C-329.132 252.846 -336.723 436.696 -233.74 525.385C-105.383 635.646 20.3257 421.48 168.12 418.829C315.913 416.179 305.318 603.8 499.927 733.145C632.555 820.52 502.848 935.027 575.461 1014.06C717.38 1160.82 853.949 1113.87 797.266 1199.82C740.582 1285.76 703.459 1322.88 712.788 1379.11" stroke="#2069E0"/>
</svg>
