<svg width="29" height="29" viewBox="0 0 29 29" fill="none" xmlns="http://www.w3.org/2000/svg">
<path d="M22.9583 13.292H6.04167C4.70698 13.292 3.625 14.374 3.625 15.7087V24.167C3.625 25.5017 4.70698 26.5837 6.04167 26.5837H22.9583C24.293 26.5837 25.375 25.5017 25.375 24.167V15.7087C25.375 14.374 24.293 13.292 22.9583 13.292Z" stroke="#A2A4AB" stroke-width="2.3" stroke-linecap="round" stroke-linejoin="round"/>
<path d="M8.45801 13.292V8.45866C8.45801 6.85631 9.09454 5.31959 10.2276 4.18656C11.3606 3.05352 12.8973 2.41699 14.4997 2.41699C16.102 2.41699 17.6387 3.05352 18.7718 4.18656C19.9048 5.31959 20.5413 6.85631 20.5413 8.45866V13.292" stroke="#A2A4AB" stroke-width="2.3" stroke-linecap="round" stroke-linejoin="round"/>
</svg>
