<svg width="194" height="59" viewBox="0 0 194 59" fill="none" xmlns="http://www.w3.org/2000/svg">
<path d="M59.6662 16.9199H54.9827V15.0296H59.6662C60.5732 15.0296 61.3077 14.8851 61.8695 14.5962C62.4314 14.3072 62.8407 13.9059 63.0976 13.3922C63.3625 12.8785 63.4949 12.2925 63.4949 11.6343C63.4949 11.0324 63.3625 10.4665 63.0976 9.93672C62.8407 9.40696 62.4314 8.98155 61.8695 8.66049C61.3077 8.33139 60.5732 8.16685 59.6662 8.16685H55.5245V23.7947H53.2008V6.26454H59.6662C60.9906 6.26454 62.1103 6.4933 63.0253 6.95081C63.9404 7.40833 64.6347 8.04244 65.1083 8.85312C65.5818 9.65579 65.8186 10.5748 65.8186 11.6103C65.8186 12.734 65.5818 13.6932 65.1083 14.4878C64.6347 15.2824 63.9404 15.8885 63.0253 16.3058C62.1103 16.7152 60.9906 16.9199 59.6662 16.9199ZM82.2531 14.4758V15.5834C82.2531 16.8998 82.0886 18.0797 81.7595 19.1232C81.4304 20.1666 80.9568 21.0536 80.3388 21.784C79.7207 22.5144 78.9783 23.0723 78.1114 23.4576C77.2525 23.8428 76.2893 24.0355 75.2218 24.0355C74.1864 24.0355 73.2352 23.8428 72.3683 23.4576C71.5095 23.0723 70.763 22.5144 70.1289 21.784C69.5028 21.0536 69.0172 20.1666 68.6721 19.1232C68.3269 18.0797 68.1544 16.8998 68.1544 15.5834V14.4758C68.1544 13.1594 68.3229 11.9835 68.66 10.9481C69.0052 9.90461 69.4908 9.01767 70.1169 8.28725C70.7429 7.5488 71.4854 6.98693 72.3443 6.60166C73.2111 6.21638 74.1623 6.02374 75.1977 6.02374C76.2653 6.02374 77.2285 6.21638 78.0873 6.60166C78.9542 6.98693 79.6966 7.5488 80.3147 8.28725C80.9408 9.01767 81.4183 9.90461 81.7474 10.9481C82.0846 11.9835 82.2531 13.1594 82.2531 14.4758ZM79.9535 15.5834V14.4517C79.9535 13.4082 79.8451 12.4852 79.6284 11.6825C79.4197 10.8798 79.1107 10.2056 78.7013 9.6598C78.292 9.11399 77.7903 8.70062 77.1963 8.41969C76.6104 8.13875 75.9442 7.99829 75.1977 7.99829C74.4753 7.99829 73.8212 8.13875 73.2352 8.41969C72.6573 8.70062 72.1596 9.11399 71.7423 9.6598C71.3329 10.2056 71.0158 10.8798 70.7911 11.6825C70.5664 12.4852 70.454 13.4082 70.454 14.4517V15.5834C70.454 16.6349 70.5664 17.566 70.7911 18.3767C71.0158 19.1794 71.3369 19.8576 71.7543 20.4115C72.1797 20.9573 72.6814 21.3706 73.2593 21.6516C73.8452 21.9325 74.4994 22.073 75.2218 22.073C75.9763 22.073 76.6465 21.9325 77.2325 21.6516C77.8184 21.3706 78.312 20.9573 78.7134 20.4115C79.1227 19.8576 79.4318 19.1794 79.6405 18.3767C79.8491 17.566 79.9535 16.6349 79.9535 15.5834ZM96.3158 18.2202H98.6274C98.507 19.3279 98.19 20.3192 97.6763 21.1941C97.1626 22.069 96.4362 22.7633 95.497 23.277C94.5579 23.7826 93.386 24.0355 91.9814 24.0355C90.954 24.0355 90.0189 23.8428 89.1761 23.4576C88.3413 23.0723 87.6229 22.5265 87.0209 21.8201C86.4189 21.1058 85.9534 20.2509 85.6243 19.2556C85.3032 18.2523 85.1427 17.1366 85.1427 15.9085V14.1627C85.1427 12.9347 85.3032 11.823 85.6243 10.8277C85.9534 9.82434 86.4229 8.9655 87.033 8.25113C87.651 7.53676 88.3935 6.98693 89.2604 6.60166C90.1272 6.21638 91.1025 6.02374 92.1861 6.02374C93.5104 6.02374 94.6302 6.27257 95.5452 6.77022C96.4602 7.26787 97.1706 7.95816 97.6763 8.84108C98.19 9.71599 98.507 10.7314 98.6274 11.8872H96.3158C96.2034 11.0685 95.9947 10.3661 95.6897 9.7802C95.3847 9.18623 94.9512 8.72871 94.3894 8.40765C93.8275 8.08658 93.0931 7.92605 92.1861 7.92605C91.4075 7.92605 90.7212 8.07454 90.1272 8.37153C89.5413 8.66851 89.0476 9.08991 88.6463 9.63572C88.253 10.1815 87.956 10.8357 87.7554 11.5982C87.5547 12.3608 87.4544 13.2076 87.4544 14.1387V15.9085C87.4544 16.7674 87.5427 17.574 87.7192 18.3285C87.9039 19.0831 88.1808 19.7452 88.55 20.3151C88.9192 20.885 89.3888 21.3345 89.9587 21.6636C90.5286 21.9847 91.2028 22.1452 91.9814 22.1452C92.9687 22.1452 93.7553 21.9887 94.3412 21.6756C94.9271 21.3626 95.3686 20.9131 95.6656 20.3272C95.9706 19.7412 96.1873 19.0389 96.3158 18.2202ZM113.003 14.1025V16.0048H105.815V14.1025H113.003ZM101.541 18.2202H103.853C103.981 19.0469 104.194 19.7533 104.491 20.3392C104.796 20.9252 105.241 21.3747 105.827 21.6877C106.413 21.9927 107.2 22.1452 108.187 22.1452C108.966 22.1452 109.64 21.9847 110.21 21.6636C110.78 21.3345 111.249 20.885 111.619 20.3151C111.988 19.7452 112.261 19.0831 112.437 18.3285C112.622 17.574 112.714 16.7674 112.714 15.9085V14.1507C112.714 13.4042 112.65 12.7139 112.522 12.0798C112.393 11.4377 112.2 10.8638 111.944 10.3581C111.687 9.84441 111.366 9.40696 110.98 9.04576C110.603 8.68456 110.162 8.40765 109.656 8.21501C109.158 8.02237 108.6 7.92605 107.982 7.92605C107.083 7.92605 106.349 8.08658 105.779 8.40765C105.217 8.72871 104.784 9.18623 104.479 9.7802C104.182 10.3661 103.973 11.0685 103.853 11.8872H101.541C101.661 10.7314 101.979 9.71599 102.492 8.84108C103.006 7.95816 103.716 7.26787 104.623 6.77022C105.538 6.27257 106.658 6.02374 107.982 6.02374C109.066 6.02374 110.041 6.21638 110.908 6.60166C111.775 6.98693 112.513 7.53676 113.123 8.25113C113.742 8.9655 114.211 9.82434 114.532 10.8277C114.861 11.831 115.026 12.9467 115.026 14.1748V15.9085C115.026 17.1366 114.861 18.2523 114.532 19.2556C114.211 20.2509 113.75 21.1058 113.148 21.8201C112.546 22.5265 111.823 23.0723 110.98 23.4576C110.146 23.8428 109.215 24.0355 108.187 24.0355C106.782 24.0355 105.611 23.7826 104.671 23.277C103.732 22.7633 103.006 22.069 102.492 21.1941C101.987 20.3192 101.67 19.3279 101.541 18.2202ZM129.365 6.26454V8.16685H121.347V6.26454H129.365ZM131.364 6.26454V23.7947H129.04V6.26454H131.364ZM120.552 6.26454H122.864L122.466 14.849C122.41 16.0851 122.314 17.1888 122.178 18.16C122.049 19.1232 121.864 19.962 121.624 20.6763C121.383 21.3827 121.07 21.9686 120.685 22.4342C120.299 22.8917 119.826 23.2328 119.264 23.4576C118.71 23.6823 118.044 23.7947 117.265 23.7947H116.639V21.9044L117.121 21.8683C117.57 21.8362 117.956 21.7358 118.277 21.5673C118.606 21.3907 118.883 21.1258 119.107 20.7727C119.34 20.4195 119.529 19.962 119.673 19.4001C119.818 18.8382 119.93 18.152 120.01 17.3413C120.099 16.5226 120.167 15.5674 120.215 14.4758L120.552 6.26454ZM141.67 6.26454V23.7947H139.383V6.26454H141.67ZM147.305 6.26454V8.16685H133.76V6.26454H147.305ZM163.065 14.4758V15.5834C163.065 16.8998 162.901 18.0797 162.571 19.1232C162.242 20.1666 161.769 21.0536 161.151 21.784C160.533 22.5144 159.79 23.0723 158.923 23.4576C158.065 23.8428 157.101 24.0355 156.034 24.0355C154.998 24.0355 154.047 23.8428 153.18 23.4576C152.322 23.0723 151.575 22.5144 150.941 21.784C150.315 21.0536 149.829 20.1666 149.484 19.1232C149.139 18.0797 148.966 16.8998 148.966 15.5834V14.4758C148.966 13.1594 149.135 11.9835 149.472 10.9481C149.817 9.90461 150.303 9.01767 150.929 8.28725C151.555 7.5488 152.297 6.98693 153.156 6.60166C154.023 6.21638 154.974 6.02374 156.01 6.02374C157.077 6.02374 158.04 6.21638 158.899 6.60166C159.766 6.98693 160.509 7.5488 161.127 8.28725C161.753 9.01767 162.23 9.90461 162.559 10.9481C162.897 11.9835 163.065 13.1594 163.065 14.4758ZM160.766 15.5834V14.4517C160.766 13.4082 160.657 12.4852 160.44 11.6825C160.232 10.8798 159.923 10.2056 159.513 9.6598C159.104 9.11399 158.602 8.70062 158.008 8.41969C157.422 8.13875 156.756 7.99829 156.01 7.99829C155.287 7.99829 154.633 8.13875 154.047 8.41969C153.469 8.70062 152.972 9.11399 152.554 9.6598C152.145 10.2056 151.828 10.8798 151.603 11.6825C151.378 12.4852 151.266 13.4082 151.266 14.4517V15.5834C151.266 16.6349 151.378 17.566 151.603 18.3767C151.828 19.1794 152.149 19.8576 152.566 20.4115C152.992 20.9573 153.493 21.3706 154.071 21.6516C154.657 21.9325 155.311 22.073 156.034 22.073C156.788 22.073 157.459 21.9325 158.044 21.6516C158.63 21.3706 159.124 20.9573 159.525 20.4115C159.935 19.8576 160.244 19.1794 160.452 18.3767C160.661 17.566 160.766 16.6349 160.766 15.5834ZM173.01 16.9199H168.327V15.0296H173.01C173.917 15.0296 174.652 14.8851 175.213 14.5962C175.775 14.3072 176.185 13.9059 176.441 13.3922C176.706 12.8785 176.839 12.2925 176.839 11.6343C176.839 11.0324 176.706 10.4665 176.441 9.93672C176.185 9.40696 175.775 8.98155 175.213 8.66049C174.652 8.33139 173.917 8.16685 173.01 8.16685H168.868V23.7947H166.545V6.26454H173.01C174.335 6.26454 175.454 6.4933 176.369 6.95081C177.284 7.40833 177.979 8.04244 178.452 8.85312C178.926 9.65579 179.163 10.5748 179.163 11.6103C179.163 12.734 178.926 13.6932 178.452 14.4878C177.979 15.2824 177.284 15.8885 176.369 16.3058C175.454 16.7152 174.335 16.9199 173.01 16.9199ZM192.972 6.26454V8.16685H184.52V23.7947H182.209V6.26454H192.972Z" fill="#1E1E1E"/>
<path d="M114.471 36.1005V53.6306H112.99V36.1005H114.471ZM125.452 36.1005L117.674 45.4073H113.881L113.749 44.1311H116.807L123.598 36.1005H125.452ZM124.139 53.6306L116.735 45.2388L117.59 43.9385L125.981 53.6306H124.139ZM134.361 47.731L139.526 36.1005H141.26L134.554 50.6206C134.393 50.9578 134.205 51.3189 133.988 51.7042C133.771 52.0815 133.502 52.4346 133.181 52.7637C132.86 53.0928 132.467 53.3617 132.001 53.5704C131.536 53.7791 130.966 53.8835 130.292 53.8835C130.123 53.8835 129.919 53.8714 129.678 53.8473C129.437 53.8233 129.268 53.7911 129.172 53.751L129.292 52.5229C129.397 52.547 129.553 52.5711 129.762 52.5952C129.979 52.6112 130.159 52.6193 130.304 52.6193C130.826 52.6193 131.259 52.5069 131.604 52.2821C131.949 52.0574 132.242 51.7684 132.483 51.4153C132.724 51.0541 132.941 50.6768 133.133 50.2835L134.361 47.731ZM128.823 36.1005L134.71 47.6708L135.168 48.9832L133.904 49.236L127.125 36.1005H128.823ZM150.134 46.4909H145.137V45.2267H150.134C151.177 45.2267 152.024 45.0582 152.674 44.7211C153.332 44.3759 153.81 43.9104 154.107 43.3244C154.412 42.7385 154.564 42.0803 154.564 41.3499C154.564 40.6355 154.412 39.9773 154.107 39.3753C153.81 38.7733 153.332 38.2917 152.674 37.9305C152.024 37.5613 151.177 37.3767 150.134 37.3767H145.655V53.6306H144.174V36.1005H150.134C151.418 36.1005 152.497 36.3212 153.372 36.7627C154.255 37.2041 154.921 37.8182 155.371 38.6048C155.82 39.3914 156.045 40.2984 156.045 41.3258C156.045 42.4014 155.82 43.3284 155.371 44.107C154.921 44.8776 154.259 45.4675 153.384 45.8769C152.509 46.2863 151.426 46.4909 150.134 46.4909ZM170.288 48.1645H171.769C171.649 49.3444 171.324 50.3638 170.794 51.2226C170.264 52.0735 169.542 52.7276 168.627 53.1851C167.712 53.6427 166.608 53.8714 165.316 53.8714C164.321 53.8714 163.418 53.6828 162.607 53.3055C161.804 52.9283 161.114 52.3945 160.536 51.7042C159.958 51.0059 159.513 50.1711 159.2 49.1999C158.887 48.2287 158.73 47.1491 158.73 45.9612V43.7699C158.73 42.582 158.887 41.5064 159.2 40.5432C159.513 39.572 159.962 38.7372 160.548 38.0389C161.134 37.3406 161.836 36.8028 162.655 36.4256C163.474 36.0483 164.397 35.8597 165.424 35.8597C166.668 35.8597 167.744 36.0884 168.651 36.546C169.558 36.9954 170.272 37.6456 170.794 38.4964C171.324 39.3472 171.649 40.3747 171.769 41.5786H170.288C170.176 40.6315 169.927 39.8288 169.542 39.1707C169.157 38.5125 168.623 38.0108 167.941 37.6657C167.266 37.3125 166.428 37.1359 165.424 37.1359C164.606 37.1359 163.875 37.2924 163.233 37.6055C162.591 37.9185 162.045 38.368 161.596 38.9539C161.146 39.5319 160.801 40.2262 160.56 41.0368C160.327 41.8475 160.211 42.7505 160.211 43.7458V45.9612C160.211 46.9244 160.323 47.8113 160.548 48.622C160.773 49.4327 161.102 50.135 161.535 50.729C161.977 51.323 162.515 51.7845 163.149 52.1136C163.783 52.4427 164.505 52.6072 165.316 52.6072C166.351 52.6072 167.214 52.4427 167.905 52.1136C168.603 51.7765 169.145 51.2788 169.53 50.6206C169.915 49.9624 170.168 49.1437 170.288 48.1645ZM176.345 43.6977H181.209C182.477 43.6977 183.54 43.9064 184.399 44.3237C185.266 44.7331 185.916 45.311 186.35 46.0575C186.791 46.7959 187.012 47.6588 187.012 48.6461C187.012 49.3765 186.887 50.0467 186.639 50.6568C186.39 51.2668 186.021 51.7965 185.531 52.246C185.041 52.6875 184.435 53.0286 183.713 53.2694C182.991 53.5102 182.156 53.6306 181.209 53.6306H175.393V36.1005H176.874V52.3664H181.209C182.228 52.3664 183.055 52.1939 183.689 51.8487C184.323 51.4955 184.789 51.034 185.085 50.4641C185.382 49.8942 185.531 49.2802 185.531 48.622C185.531 47.9718 185.382 47.3699 185.085 46.816C184.789 46.2622 184.323 45.8167 183.689 45.4796C183.055 45.1344 182.228 44.9619 181.209 44.9619H176.345V43.6977ZM191.406 36.1005V53.6306H189.926V36.1005H191.406Z" fill="#2069E0"/>
<path fill-rule="evenodd" clip-rule="evenodd" d="M22.5709 1.28751C22.5709 0.183592 21.0342 -0.0867537 20.6575 0.950876L6.48672 39.9778C6.25318 40.6209 6.72954 41.3007 7.41381 41.3007H21.5845C22.1293 41.3007 22.5709 40.8591 22.5709 40.3144V1.28751ZM0.138547 57.4609L4.69607 44.9093C4.83768 44.5193 5.20823 44.2596 5.62315 44.2596H21.1813C22.0123 44.2596 22.4709 45.2242 21.9462 45.8687L21.746 46.1146C21.5587 46.3447 21.2778 46.4782 20.9811 46.4782H7.25905C6.84413 46.4782 6.47312 46.7391 6.33151 47.1291C6.09797 47.7723 6.57341 48.4546 7.25767 48.4546H17.7662C18.5971 48.4546 19.0557 49.4192 18.531 50.0636L18.2687 50.3859C18.0814 50.6159 17.8005 50.7495 17.5038 50.7495H5.63821C5.26527 50.7495 4.93221 50.9829 4.80492 51.3334C4.59501 51.9115 5.02318 52.5225 5.63821 52.5225H14.4544C15.2854 52.5225 15.7439 53.4871 15.2193 54.1315L14.957 54.4537C14.7697 54.6838 14.4888 54.8174 14.1921 54.8174H4.20136C3.80428 54.8174 3.44967 55.0659 3.31414 55.4391C3.09065 56.0546 3.54652 56.7051 4.20136 56.7051H44.4988C45.1536 56.7051 45.6095 56.0546 45.386 55.4391C45.2505 55.0659 44.8959 54.8174 44.4988 54.8174H34.4405C34.1438 54.8174 33.8629 54.6838 33.6756 54.4537L33.4133 54.1315C32.8887 53.4871 33.3472 52.5225 34.1782 52.5225H43.0619C43.677 52.5225 44.1051 51.9115 43.8952 51.3334C43.7679 50.9829 43.4349 50.7495 43.0619 50.7495H31.1288C30.8321 50.7495 30.5512 50.6159 30.3639 50.3859L30.1016 50.0636C29.5769 49.4192 30.0355 48.4546 30.8664 48.4546H41.4425C42.1267 48.4546 42.6022 47.7723 42.3686 47.1291C42.227 46.7391 41.856 46.4782 41.4411 46.4782H27.6515C27.3548 46.4782 27.0739 46.3447 26.8866 46.1146L26.6864 45.8686C26.1618 45.2242 26.6203 44.2596 27.4513 44.2596H43.077C43.4919 44.2596 43.8625 44.5193 44.0041 44.9093L48.5616 57.4609L48.6401 57.6771C48.8736 58.3202 48.3973 59 47.713 59H47.4831H1.21708H0.987164C0.302897 59 -0.173463 58.3202 0.0600771 57.6771L0.138547 57.4609ZM26.0203 0.987353C26.0203 -0.116561 27.5569 -0.3869 27.9337 0.65073L42.2134 39.9778C42.447 40.6209 41.9706 41.3007 41.2863 41.3007H27.0066C26.4619 41.3007 26.0203 40.8591 26.0203 40.3144V0.987353ZM15.3568 38.4511C15.3568 38.9959 14.9152 39.4375 14.3705 39.4375H10.5318C9.84755 39.4375 9.37119 38.7577 9.60473 38.1145L12.3633 30.5173C12.5049 30.1273 12.8755 29.8676 13.2904 29.8676H14.3705C14.9152 29.8676 15.3568 30.3092 15.3568 30.854L15.3568 38.4511ZM16.5043 27.5728H14.8399C14.1556 27.5728 13.6793 26.893 13.9128 26.2498L15.6931 21.3468C16.0051 20.4877 17.2168 20.4783 17.542 21.3326L20.7708 29.8147C20.8135 29.9267 20.8354 30.0457 20.8354 30.1656V38.4511C20.8354 38.9959 20.3938 39.4375 19.8491 39.4375H18.638C18.0933 39.4375 17.6517 38.9959 17.6517 38.4511L17.6517 28.7202V28.5591C17.6517 28.0144 17.2101 27.5728 16.6654 27.5728H16.5043ZM20.8354 18.1703C20.8354 19.2656 19.3169 19.5448 18.9273 18.5212L17.9276 15.895C17.8434 15.6739 17.8416 15.4299 17.9223 15.2075L18.922 12.4544C19.2987 11.4167 20.8354 11.6871 20.8354 12.791V18.1703ZM29.771 18.6954C29.377 19.7142 27.8648 19.432 27.8648 18.3396V12.791C27.8648 11.6871 29.4014 11.4167 29.7782 12.4544L30.8173 15.316C30.8986 15.5401 30.8961 15.7861 30.8101 16.0084L29.771 18.6954ZM27.8648 30.1714C27.8648 30.0497 27.8873 29.9291 27.9312 29.8156L31.1859 21.3991C31.5147 20.5489 32.7219 20.5614 33.033 21.4182L34.7873 26.2498C35.0209 26.893 34.5445 27.5728 33.8603 27.5728H32.8046H32.6435C32.0988 27.5728 31.6572 28.0144 31.6572 28.5591V28.7202V38.4511C31.6572 38.9959 31.2156 39.4375 30.6709 39.4375H28.8511C28.3064 39.4375 27.8648 38.9959 27.8648 38.4511V30.1714ZM33.9521 30.854C33.9521 30.3092 34.3936 29.8676 34.9384 29.8676H35.4098C35.8247 29.8676 36.1953 30.1273 36.3369 30.5173L39.0954 38.1145C39.329 38.7577 38.8526 39.4375 38.1683 39.4375H34.9384C34.3936 39.4375 33.9521 38.9959 33.9521 38.4511V30.854Z" fill="#2069E0"/>
</svg>
