<svg width="329" height="100" viewBox="0 0 329 100" fill="none" xmlns="http://www.w3.org/2000/svg">
<path d="M101.13 28.1691H93.1916V24.9652H101.13C102.667 24.9652 103.912 24.7203 104.864 24.2306C105.817 23.7408 106.51 23.0606 106.946 22.1899C107.395 21.3192 107.619 20.3261 107.619 19.2105C107.619 18.1902 107.395 17.2311 106.946 16.3332C106.51 15.4353 105.817 14.7143 104.864 14.1701C103.912 13.6123 102.667 13.3334 101.13 13.3334H94.1099V39.8213H90.1714V10.1092H101.13C103.375 10.1092 105.272 10.4969 106.823 11.2723C108.374 12.0478 109.551 13.1226 110.354 14.4966C111.156 15.857 111.558 17.4148 111.558 19.1697C111.558 21.0744 111.156 22.7001 110.354 24.0469C109.551 25.3938 108.374 26.4209 106.823 27.1283C105.272 27.8222 103.375 28.1691 101.13 28.1691ZM139.413 24.0265V25.9039C139.413 28.1351 139.134 30.1349 138.576 31.9035C138.018 33.6721 137.216 35.1754 136.168 36.4134C135.12 37.6514 133.862 38.5969 132.393 39.2499C130.937 39.9029 129.305 40.2294 127.495 40.2294C125.74 40.2294 124.128 39.9029 122.659 39.2499C121.203 38.5969 119.938 37.6514 118.863 36.4134C117.802 35.1754 116.979 33.6721 116.394 31.9035C115.809 30.1349 115.516 28.1351 115.516 25.9039V24.0265C115.516 21.7954 115.802 19.8023 116.374 18.0474C116.959 16.2788 117.782 14.7755 118.843 13.5375C119.904 12.2859 121.162 11.3336 122.618 10.6806C124.087 10.0275 125.699 9.70103 127.454 9.70103C129.264 9.70103 130.896 10.0275 132.352 10.6806C133.821 11.3336 135.08 12.2859 136.127 13.5375C137.188 14.7755 137.998 16.2788 138.556 18.0474C139.127 19.8023 139.413 21.7954 139.413 24.0265ZM135.515 25.9039V23.9857C135.515 22.2171 135.331 20.6526 134.964 19.2922C134.61 17.9317 134.087 16.789 133.393 15.8639C132.699 14.9387 131.849 14.2381 130.842 13.762C129.849 13.2858 128.72 13.0477 127.454 13.0477C126.23 13.0477 125.121 13.2858 124.128 13.762C123.149 14.2381 122.305 14.9387 121.598 15.8639C120.904 16.789 120.366 17.9317 119.986 19.2922C119.605 20.6526 119.414 22.2171 119.414 23.9857V25.9039C119.414 27.6861 119.605 29.2642 119.986 30.6383C120.366 31.9987 120.911 33.1483 121.618 34.087C122.339 35.0121 123.189 35.7127 124.169 36.1889C125.162 36.6651 126.271 36.9031 127.495 36.9031C128.774 36.9031 129.91 36.6651 130.903 36.1889C131.896 35.7127 132.733 35.0121 133.413 34.087C134.107 33.1483 134.631 31.9987 134.984 30.6383C135.338 29.2642 135.515 27.6861 135.515 25.9039ZM163.248 30.373H167.166C166.962 32.2504 166.424 33.9306 165.554 35.4134C164.683 36.8963 163.452 38.0731 161.86 38.9438C160.268 39.8009 158.282 40.2294 155.901 40.2294C154.16 40.2294 152.575 39.9029 151.147 39.2499C149.732 38.5969 148.514 37.6718 147.494 36.4746C146.473 35.2638 145.684 33.8149 145.127 32.128C144.582 30.4274 144.31 28.5364 144.31 26.4549V23.4959C144.31 21.4145 144.582 19.5303 145.127 17.8433C145.684 16.1427 146.48 14.6871 147.514 13.4763C148.562 12.2655 149.82 11.3336 151.289 10.6806C152.759 10.0275 154.412 9.70103 156.248 9.70103C158.493 9.70103 160.391 10.1228 161.942 10.9662C163.493 11.8097 164.697 12.9797 165.554 14.4762C166.424 15.9591 166.962 17.68 167.166 19.6391H163.248C163.057 18.2514 162.704 17.061 162.187 16.0679C161.67 15.0612 160.935 14.2857 159.983 13.7416C159.03 13.1974 157.786 12.9253 156.248 12.9253C154.929 12.9253 153.765 13.177 152.759 13.6803C151.766 14.1837 150.929 14.8979 150.249 15.823C149.582 16.7481 149.079 17.8569 148.739 19.1493C148.398 20.4417 148.228 21.877 148.228 23.4551V26.4549C148.228 27.9106 148.378 29.2778 148.677 30.5567C148.99 31.8355 149.46 32.9578 150.085 33.9238C150.711 34.8897 151.507 35.6515 152.473 36.2093C153.439 36.7535 154.582 37.0256 155.901 37.0256C157.575 37.0256 158.908 36.7603 159.901 36.2297C160.894 35.6991 161.642 34.9373 162.146 33.9442C162.663 32.951 163.03 31.7607 163.248 30.373ZM191.531 23.3939V26.6182H179.349V23.3939H191.531ZM172.104 30.373H176.022C176.24 31.7743 176.6 32.9714 177.104 33.9646C177.621 34.9577 178.376 35.7195 179.369 36.2501C180.362 36.7671 181.695 37.0256 183.369 37.0256C184.688 37.0256 185.831 36.7535 186.797 36.2093C187.763 35.6515 188.559 34.8897 189.185 33.9238C189.81 32.9578 190.273 31.8355 190.572 30.5567C190.885 29.2778 191.042 27.9106 191.042 26.4549V23.4755C191.042 22.2103 190.933 21.0403 190.715 19.9656C190.497 18.8772 190.171 17.9045 189.736 17.0474C189.3 16.1768 188.756 15.4353 188.103 14.8231C187.464 14.2109 186.715 13.7416 185.858 13.415C185.015 13.0885 184.069 12.9253 183.022 12.9253C181.498 12.9253 180.253 13.1974 179.287 13.7416C178.335 14.2857 177.6 15.0612 177.083 16.0679C176.58 17.061 176.226 18.2514 176.022 19.6391H172.104C172.308 17.68 172.846 15.9591 173.716 14.4762C174.587 12.9797 175.791 11.8097 177.328 10.9662C178.879 10.1228 180.777 9.70103 183.022 9.70103C184.858 9.70103 186.511 10.0275 187.981 10.6806C189.45 11.3336 190.701 12.2655 191.735 13.4763C192.783 14.6871 193.579 16.1427 194.123 17.8433C194.681 19.5439 194.96 21.4349 194.96 23.5164V26.4549C194.96 28.5364 194.681 30.4274 194.123 32.128C193.579 33.8149 192.797 35.2638 191.776 36.4746C190.756 37.6718 189.531 38.5969 188.103 39.2499C186.688 39.9029 185.11 40.2294 183.369 40.2294C180.988 40.2294 179.002 39.8009 177.41 38.9438C175.818 38.0731 174.587 36.8963 173.716 35.4134C172.859 33.9306 172.322 32.2504 172.104 30.373ZM219.264 10.1092V13.3334H205.673V10.1092H219.264ZM222.652 10.1092V39.8213H218.713V10.1092H222.652ZM204.326 10.1092H208.244L207.571 24.6591C207.476 26.7542 207.313 28.6248 207.081 30.271C206.864 31.9035 206.551 33.3252 206.143 34.536C205.734 35.7332 205.204 36.7263 204.551 37.5153C203.898 38.2908 203.095 38.869 202.143 39.2499C201.204 39.6308 200.075 39.8213 198.755 39.8213H197.694V36.6174L198.51 36.5562C199.272 36.5018 199.925 36.3317 200.469 36.0461C201.027 35.7468 201.497 35.2978 201.878 34.6992C202.272 34.1006 202.592 33.3252 202.837 32.3729C203.082 31.4205 203.272 30.2574 203.408 28.8833C203.558 27.4957 203.673 25.8767 203.755 24.0265L204.326 10.1092ZM240.12 10.1092V39.8213H236.242V10.1092H240.12ZM249.67 10.1092V13.3334H226.712V10.1092H249.67ZM276.382 24.0265V25.9039C276.382 28.1351 276.103 30.1349 275.546 31.9035C274.988 33.6721 274.185 35.1754 273.138 36.4134C272.09 37.6514 270.832 38.5969 269.362 39.2499C267.907 39.9029 266.274 40.2294 264.465 40.2294C262.71 40.2294 261.098 39.9029 259.628 39.2499C258.173 38.5969 256.908 37.6514 255.833 36.4134C254.772 35.1754 253.949 33.6721 253.364 31.9035C252.779 30.1349 252.486 28.1351 252.486 25.9039V24.0265C252.486 21.7954 252.772 19.8023 253.343 18.0474C253.928 16.2788 254.751 14.7755 255.812 13.5375C256.874 12.2859 258.132 11.3336 259.588 10.6806C261.057 10.0275 262.669 9.70103 264.424 9.70103C266.233 9.70103 267.866 10.0275 269.322 10.6806C270.791 11.3336 272.049 12.2859 273.097 13.5375C274.158 14.7755 274.967 16.2788 275.525 18.0474C276.097 19.8023 276.382 21.7954 276.382 24.0265ZM272.485 25.9039V23.9857C272.485 22.2171 272.301 20.6526 271.934 19.2922C271.58 17.9317 271.056 16.789 270.362 15.8639C269.669 14.9387 268.818 14.2381 267.812 13.762C266.818 13.2858 265.689 13.0477 264.424 13.0477C263.2 13.0477 262.091 13.2858 261.098 13.762C260.118 14.2381 259.275 14.9387 258.567 15.8639C257.873 16.789 257.336 17.9317 256.955 19.2922C256.574 20.6526 256.384 22.2171 256.384 23.9857V25.9039C256.384 27.6861 256.574 29.2642 256.955 30.6383C257.336 31.9987 257.88 33.1483 258.588 34.087C259.309 35.0121 260.159 35.7127 261.139 36.1889C262.132 36.6651 263.24 36.9031 264.465 36.9031C265.744 36.9031 266.88 36.6651 267.873 36.1889C268.866 35.7127 269.703 35.0121 270.383 34.087C271.077 33.1483 271.6 31.9987 271.954 30.6383C272.308 29.2642 272.485 27.6861 272.485 25.9039ZM293.238 28.1691H285.3V24.9652H293.238C294.776 24.9652 296.02 24.7203 296.973 24.2306C297.925 23.7408 298.619 23.0606 299.054 22.1899C299.503 21.3192 299.728 20.3261 299.728 19.2105C299.728 18.1902 299.503 17.2311 299.054 16.3332C298.619 15.4353 297.925 14.7143 296.973 14.1701C296.02 13.6123 294.776 13.3334 293.238 13.3334H286.218V39.8213H282.28V10.1092H293.238C295.483 10.1092 297.381 10.4969 298.932 11.2723C300.483 12.0478 301.659 13.1226 302.462 14.4966C303.265 15.857 303.666 17.4148 303.666 19.1697C303.666 21.0744 303.265 22.7001 302.462 24.0469C301.659 25.3938 300.483 26.4209 298.932 27.1283C297.381 27.8222 295.483 28.1691 293.238 28.1691ZM327.072 10.1092V13.3334H312.747V39.8213H308.829V10.1092H327.072Z" fill="#1E1E1E"/>
<path d="M194.019 60.6785V90.3906H191.509V60.6785H194.019ZM212.63 60.6785L199.447 76.4529H193.019L192.795 74.2898H197.978L209.487 60.6785H212.63ZM210.406 90.3906L197.856 76.1672L199.305 73.9633L213.528 90.3906H210.406ZM227.731 80.3914L236.486 60.6785H239.424L228.058 85.289C227.785 85.8603 227.466 86.4725 227.098 87.1256C226.731 87.765 226.275 88.3636 225.731 88.9213C225.187 89.4791 224.52 89.9349 223.731 90.2886C222.942 90.6423 221.976 90.8192 220.834 90.8192C220.548 90.8192 220.201 90.7988 219.793 90.7579C219.385 90.7171 219.099 90.6627 218.936 90.5947L219.14 88.5132C219.317 88.554 219.582 88.5948 219.936 88.6357C220.303 88.6629 220.609 88.6765 220.854 88.6765C221.738 88.6765 222.473 88.486 223.058 88.1051C223.643 87.7242 224.139 87.2344 224.548 86.6358C224.956 86.0236 225.323 85.3842 225.65 84.7176L227.731 80.3914ZM218.344 60.6785L228.323 80.2893L229.098 82.5136L226.956 82.9422L215.467 60.6785H218.344ZM254.464 78.2895H245.995V76.1468H254.464C256.232 76.1468 257.668 75.8611 258.77 75.2897C259.885 74.7047 260.695 73.9156 261.198 72.9225C261.715 71.9294 261.973 70.8138 261.973 69.5758C261.973 68.365 261.715 67.2495 261.198 66.2291C260.695 65.2088 259.885 64.3925 258.77 63.7803C257.668 63.1545 256.232 62.8416 254.464 62.8416H246.873V90.3906H244.363V60.6785H254.464C256.641 60.6785 258.47 61.0526 259.953 61.8009C261.45 62.5491 262.579 63.5899 263.341 64.9231C264.103 66.2563 264.483 67.7936 264.483 69.535C264.483 71.358 264.103 72.9293 263.341 74.2489C262.579 75.555 261.456 76.5549 259.974 77.2487C258.491 77.9426 256.654 78.2895 254.464 78.2895ZM288.625 81.126H291.135C290.931 83.1258 290.38 84.8536 289.482 86.3093C288.584 87.7514 287.359 88.8601 285.808 89.6356C284.258 90.411 282.387 90.7988 280.197 90.7988C278.51 90.7988 276.979 90.4791 275.605 89.8396C274.245 89.2002 273.075 88.2955 272.095 87.1256C271.116 85.942 270.361 84.5271 269.83 82.881C269.299 81.2348 269.034 79.405 269.034 77.3916V73.6776C269.034 71.6641 269.299 69.8411 269.83 68.2086C270.361 66.5624 271.122 65.1476 272.116 63.964C273.109 62.7804 274.299 61.8689 275.687 61.2295C277.074 60.5901 278.639 60.2704 280.38 60.2704C282.489 60.2704 284.312 60.6581 285.849 61.4336C287.387 62.1954 288.597 63.2974 289.482 64.7394C290.38 66.1815 290.931 67.9229 291.135 69.9635H288.625C288.434 68.3582 288.012 66.9978 287.359 65.8822C286.706 64.7666 285.802 63.9164 284.645 63.3314C283.502 62.7328 282.081 62.4335 280.38 62.4335C278.993 62.4335 277.755 62.6988 276.666 63.2293C275.578 63.7599 274.653 64.5218 273.891 65.5149C273.129 66.4944 272.544 67.6712 272.136 69.0452C271.741 70.4193 271.544 71.9498 271.544 73.6367V77.3916C271.544 79.0241 271.735 80.5274 272.116 81.9014C272.496 83.2755 273.054 84.4659 273.789 85.4726C274.537 86.4793 275.449 87.2616 276.523 87.8194C277.598 88.3772 278.823 88.6561 280.197 88.6561C281.952 88.6561 283.414 88.3772 284.584 87.8194C285.768 87.248 286.686 86.4045 287.339 85.289C287.992 84.1734 288.421 82.7857 288.625 81.126ZM298.889 73.5551H307.133C309.283 73.5551 311.086 73.9088 312.541 74.6163C314.01 75.3101 315.112 76.2896 315.847 77.5548C316.595 78.8064 316.969 80.2689 316.969 81.9423C316.969 83.1803 316.759 84.3162 316.337 85.3502C315.915 86.3841 315.289 87.282 314.459 88.0439C313.63 88.7921 312.602 89.3703 311.378 89.7784C310.154 90.1866 308.739 90.3906 307.133 90.3906H297.277V60.6785H299.787V88.2479H307.133C308.861 88.2479 310.262 87.9554 311.337 87.3704C312.412 86.7718 313.201 85.9896 313.704 85.0237C314.208 84.0578 314.459 83.017 314.459 81.9014C314.459 80.7995 314.208 79.7792 313.704 78.8404C313.201 77.9017 312.412 77.1467 311.337 76.5753C310.262 75.9903 308.861 75.6978 307.133 75.6978H298.889V73.5551ZM324.418 60.6785V90.3906H321.908V60.6785H324.418Z" fill="#2069E0"/>
<path fill-rule="evenodd" clip-rule="evenodd" d="M38.2547 2.18122C38.2547 0.310177 35.6503 -0.148034 35.0117 1.61066L10.9933 67.7585C10.5975 68.8486 11.4049 70.0007 12.5646 70.0007H36.583C37.5063 70.0007 38.2547 69.2523 38.2547 68.329V2.18122ZM0.233847 97.3905L7.95829 76.117C8.19831 75.456 8.82637 75.0159 9.52963 75.0159H35.9006C37.309 75.0159 38.0862 76.6508 37.197 77.743L36.858 78.1594C36.5406 78.5493 36.0645 78.7757 35.5616 78.7757H12.3025C11.5993 78.7757 10.9704 79.2179 10.7304 79.8789C10.3346 80.9691 11.1404 82.1255 12.3002 82.1255H30.1125C31.5209 82.1255 32.2981 83.7605 31.4089 84.8527L30.9643 85.3988C30.6468 85.7888 30.1707 86.0151 29.6679 86.0151H9.55532C8.92322 86.0151 8.35871 86.4107 8.14297 87.0049C7.78719 87.9847 8.51289 89.0203 9.55532 89.0203H24.4994C25.9078 89.0203 26.685 90.6552 25.7958 91.7474L25.3512 92.2936C25.0337 92.6835 24.5576 92.9099 24.0548 92.9099H7.11997C6.44696 92.9099 5.84592 93.331 5.61622 93.9636C5.23741 95.0069 6.01008 96.1095 7.11997 96.1095H75.4208C76.5307 96.1095 77.3033 95.0069 76.9245 93.9637C76.6948 93.3311 76.0938 92.9099 75.4208 92.9099H58.3727C57.8699 92.9099 57.3937 92.6835 57.0763 92.2936L56.6316 91.7474C55.7424 90.6552 56.5196 89.0203 57.928 89.0203H72.9854C74.0278 89.0203 74.7535 87.9847 74.3978 87.0049C74.182 86.4107 73.6175 86.0151 72.9854 86.0151H52.7596C52.2567 86.0151 51.7806 85.7888 51.4632 85.3988L51.0185 84.8527C50.1293 83.7605 50.9065 82.1255 52.3149 82.1255H70.2406C71.4003 82.1255 72.2062 80.9691 71.8103 79.8789C71.5703 79.2179 70.9415 78.7757 70.2382 78.7757H46.8658C46.363 78.7757 45.8869 78.5493 45.5694 78.1594L45.2304 77.743C44.3413 76.6508 45.1185 75.0159 46.5269 75.0159H73.0111C73.7144 75.0159 74.3424 75.456 74.5825 76.117L82.3069 97.3905L82.4399 97.7568C82.8357 98.8469 82.0283 99.9991 80.8686 99.9991H80.4789H2.06187H1.67219C0.512409 99.9991 -0.294982 98.8469 0.100849 97.7568L0.233847 97.3905ZM44.1013 1.67251C44.1013 -0.19853 46.7057 -0.656744 47.3443 1.10195L71.5474 67.7585C71.9433 68.8486 71.1359 70.0007 69.9761 70.0007H45.773C44.8497 70.0007 44.1013 69.2523 44.1013 68.329V1.67251ZM26.0276 65.1705C26.0276 66.0938 25.2791 66.8422 24.3559 66.8422H17.8496C16.6898 66.8422 15.8824 65.6901 16.2782 64.5999L20.9538 51.7233C21.1938 51.0623 21.8218 50.6222 22.5251 50.6222H24.3559C25.2791 50.6222 26.0276 51.3706 26.0276 52.2939L26.0276 65.1705ZM27.9724 46.7326H25.1514C23.9916 46.7326 23.1842 45.5804 23.5801 44.4903L26.5975 36.1801C27.1263 34.7239 29.1801 34.7081 29.7312 36.1559L35.2039 50.5324C35.2762 50.7224 35.3132 50.9239 35.3132 51.1271V65.1705C35.3132 66.0938 34.5648 66.8422 33.6415 66.8422H31.5889C30.6656 66.8422 29.9172 66.0938 29.9172 65.1705L29.9172 48.6774V48.4043C29.9172 47.481 29.1687 46.7326 28.2454 46.7326H27.9724ZM35.3132 30.7961C35.3132 32.6525 32.7396 33.1258 32.0792 31.3908L30.3848 26.9398C30.2422 26.565 30.239 26.1514 30.3758 25.7745L32.0702 21.1082C32.7088 19.3495 35.3132 19.8077 35.3132 21.6787V30.7961ZM50.4584 31.6861C49.7906 33.4129 47.2275 32.9346 47.2275 31.0831V21.6787C47.2275 19.8077 49.832 19.3494 50.4705 21.1081L52.2317 25.9584C52.3696 26.3382 52.3653 26.7551 52.2195 27.1319L50.4584 31.6861ZM47.2275 51.137C47.2275 50.9308 47.2656 50.7264 47.34 50.534L52.8566 36.2686C53.4138 34.8278 55.4598 34.8489 55.9871 36.301L58.9607 44.4903C59.3565 45.5805 58.5491 46.7326 57.3893 46.7326H55.6001H55.327C54.4038 46.7326 53.6553 47.481 53.6553 48.4043V48.6774V65.1705C53.6553 66.0938 52.9069 66.8422 51.9836 66.8422H48.8992C47.9759 66.8422 47.2275 66.0938 47.2275 65.1705V51.137ZM57.5449 52.2939C57.5449 51.3706 58.2934 50.6222 59.2166 50.6222H60.0156C60.7189 50.6222 61.347 51.0623 61.587 51.7233L66.2625 64.5999C66.6583 65.6901 65.8509 66.8422 64.6912 66.8422H59.2166C58.2934 66.8422 57.5449 66.0938 57.5449 65.1705V52.2939Z" fill="#2069E0"/>
</svg>
