<svg width="29" height="29" viewBox="0 0 29 29" fill="none" xmlns="http://www.w3.org/2000/svg">
<path d="M14.5003 19.3337C17.1697 19.3337 19.3337 17.1697 19.3337 14.5003C19.3337 11.8309 17.1697 9.66699 14.5003 9.66699C11.8309 9.66699 9.66699 11.8309 9.66699 14.5003C9.66699 17.1697 11.8309 19.3337 14.5003 19.3337Z" stroke="#A2A4AB" stroke-width="2" stroke-linecap="round" stroke-linejoin="round"/>
<path d="M19.3337 9.66624V15.7079C19.3337 16.6693 19.7156 17.5914 20.3954 18.2712C21.0752 18.951 21.9973 19.3329 22.9587 19.3329C23.9201 19.3329 24.8421 18.951 25.5219 18.2712C26.2018 17.5914 26.5837 16.6693 26.5837 15.7079V14.4996C26.5835 11.7724 25.6608 9.12549 23.9655 6.98922C22.2703 4.85295 19.9023 3.35297 17.2464 2.73319C14.5906 2.1134 11.8033 2.41025 9.33755 3.57548C6.87184 4.7407 4.87282 6.70577 3.66552 9.15116C2.45823 11.5965 2.11367 14.3784 2.68787 17.0445C3.26208 19.7105 4.72127 22.1039 6.82818 23.8355C8.9351 25.5671 11.5658 26.535 14.2926 26.5819C17.0194 26.6288 19.6818 25.7519 21.847 24.0937" stroke="#A2A4AB" stroke-width="2" stroke-linecap="round" stroke-linejoin="round"/>
</svg>
