<svg width="27" height="27" viewBox="0 0 27 27" fill="none" xmlns="http://www.w3.org/2000/svg">
<path d="M25.5832 19.4454V23.0704C25.5846 23.407 25.5157 23.7401 25.3808 24.0484C25.246 24.3567 25.0483 24.6335 24.8003 24.861C24.5524 25.0885 24.2596 25.2617 23.9408 25.3695C23.622 25.4774 23.2842 25.5174 22.9491 25.4871C19.2308 25.0831 15.6592 23.8125 12.5211 21.7775C9.60161 19.9223 7.12635 17.4471 5.27115 14.5275C3.22904 11.3752 1.95819 7.78623 1.56157 4.05128C1.53137 3.71713 1.57108 3.38036 1.67817 3.06241C1.78526 2.74445 1.95738 2.45228 2.18357 2.20448C2.40977 1.95669 2.68508 1.75872 2.99198 1.62316C3.29888 1.4876 3.63064 1.41743 3.96615 1.41711H7.59115C8.17756 1.41134 8.74606 1.619 9.19069 2.00138C9.63532 2.38376 9.92574 2.91477 10.0078 3.49544C10.1608 4.65552 10.4446 5.79457 10.8536 6.89086C11.0162 7.32335 11.0514 7.79338 10.955 8.24526C10.8587 8.69713 10.6348 9.11191 10.3099 9.44044L8.77532 10.975C10.4954 14.0001 13.0002 16.5049 16.0253 18.225L17.5599 16.6904C17.8884 16.3656 18.3032 16.1417 18.7551 16.0453C19.207 15.9489 19.677 15.9841 20.1095 16.1467C21.2058 16.5558 22.3448 16.8395 23.5049 16.9925C24.0919 17.0753 24.6279 17.371 25.0111 17.8232C25.3943 18.2755 25.5979 18.8528 25.5832 19.4454Z" stroke="#A2A4AB" stroke-width="2" stroke-linecap="round" stroke-linejoin="round"/>
</svg>
