<svg width="608" height="1024" viewBox="0 0 608 1024" fill="none" xmlns="http://www.w3.org/2000/svg">
<path d="M197.964 -368.955C141.227 -315.196 76.7628 -180.47 71.1027 -54.3067C64.6498 89.5303 103.088 202.851 218.665 278.795C334.242 354.738 403.547 370.054 505.044 486.472C598.791 594 686.637 665.027 614.037 761.435C559.282 834.146 600.854 974.304 511.709 1010.79C422.564 1047.28 374.295 1056.37 351.834 1104.72" stroke="#2069E0"/>
<path d="M655.97 -472.537C599.234 -418.777 494.43 -280.584 529.109 -157.888C572.458 -4.51826 791.175 -114.258 906.752 -38.314C1022.33 37.6296 906.311 183.188 987.43 390.119C1041.91 529.106 868.859 546.572 887.6 646.095C924.142 840.145 1058.86 870.722 969.715 907.208C880.57 943.694 832.301 952.784 809.84 1001.14" stroke="#2069E0"/>
<path d="M217.134 -373.392C160.398 -319.633 94.0124 -184.742 90.2733 -58.7439C86.1919 85.5471 133.215 188.246 248.791 264.189C364.368 340.133 424.849 361.651 525.376 482.379C617.253 591.405 692.675 659.882 624.425 756.437C574.017 834.927 620.024 969.867 530.879 1006.35C441.735 1042.84 393.466 1051.93 371.005 1100.28" stroke="#2069E0"/>
<path d="M236.956 -377.952C180.219 -324.192 111.913 -189.136 110.095 -63.3032C108.385 81.4417 163.992 173.519 279.569 249.462C395.146 325.406 446.802 353.126 546.358 478.163C636.366 588.688 699.364 654.614 635.463 751.318C589.403 835.586 639.846 965.308 550.701 1001.79C461.556 1038.28 413.287 1047.37 390.826 1095.72" stroke="#2069E0"/>
<path d="M257.328 -382.61C200.591 -328.851 130.364 -193.63 130.467 -67.9615C131.128 77.2374 195.32 158.692 310.897 234.636C426.474 310.58 469.305 344.501 567.891 473.849C656.029 585.872 706.603 649.247 647.052 746.1C605.339 836.145 660.218 960.649 571.073 997.135C481.928 1033.62 433.659 1042.71 411.198 1091.07" stroke="#2069E0"/>
<path d="M278.14 -387.356C221.404 -333.597 149.256 -198.211 151.279 -72.7075C154.312 72.9453 227.089 143.778 342.666 219.722C458.243 295.666 492.249 335.79 589.865 469.448C676.133 582.968 714.283 643.793 659.082 740.794C621.717 836.618 681.03 955.903 591.885 992.389C502.741 1028.88 454.472 1037.96 432.011 1086.32" stroke="#2069E0"/>
<path d="M299.313 -392.167C242.576 -338.408 168.507 -202.857 172.451 -77.5189C177.856 68.5879 259.218 128.799 374.795 204.743C490.372 280.686 515.553 327.012 612.198 464.98C696.596 579.999 722.323 638.274 671.471 735.423C638.453 837.024 702.202 951.092 613.058 987.578C523.913 1024.06 475.644 1033.15 453.183 1081.51" stroke="#2069E0"/>
<path d="M320.767 -397.034C264.031 -343.275 188.041 -207.559 193.906 -82.3859C201.683 64.1748 291.629 113.764 407.206 189.708C522.783 265.651 539.139 318.179 634.813 460.458C717.342 576.974 730.645 632.698 684.143 729.996C655.472 837.375 723.657 946.225 634.512 982.711C545.368 1019.2 497.099 1028.29 474.638 1076.64" stroke="#2069E0"/>
<path d="M342.453 -401.942C285.716 -348.183 207.805 -212.301 215.591 -87.2937C225.739 59.721 324.27 98.6882 439.847 174.632C555.424 250.576 562.955 309.305 657.659 455.894C738.319 573.909 739.198 627.082 697.045 724.528C672.722 837.686 745.342 941.317 656.198 977.803C567.053 1014.29 518.784 1023.38 496.323 1071.73" stroke="#2069E0"/>
<path d="M364.319 -406.884C307.582 -353.125 227.75 -217.078 237.457 -92.2358C249.977 55.2328 357.092 83.5782 472.669 159.522C588.246 235.466 586.952 300.397 680.686 451.296C759.476 570.809 747.931 621.432 710.128 719.026C690.152 837.962 767.208 936.375 678.064 972.861C588.919 1009.35 540.65 1018.44 518.189 1066.79" stroke="#2069E0"/>
<path d="M386.33 -411.856C329.593 -358.097 247.84 -221.885 259.468 -97.2075C274.359 50.7151 390.06 68.4385 505.637 144.382C621.214 220.326 611.095 291.46 703.858 446.669C780.778 567.679 756.81 615.752 723.356 713.495C707.728 838.208 789.219 931.403 700.075 967.889C610.93 1004.38 562.661 1013.46 540.2 1061.82" stroke="#2069E0"/>
<path d="M408.463 -416.849C351.727 -363.09 268.053 -226.713 281.602 -102.201C298.864 46.1757 423.15 53.2773 538.727 129.221C654.304 205.165 635.36 282.5 727.153 442.02C802.203 564.528 765.811 610.05 736.707 707.941C725.426 838.433 811.353 926.41 722.208 962.896C633.063 999.382 584.794 1008.47 562.333 1056.83" stroke="#2069E0"/>
<path d="M430.694 -421.86C373.958 -368.101 288.363 -231.559 303.833 -107.212C323.467 41.6189 456.337 38.0985 571.914 114.042C687.491 189.986 659.722 273.524 750.545 437.353C823.726 561.36 774.909 604.331 750.155 702.371C743.222 838.641 833.584 921.399 744.439 957.885C655.294 994.371 607.025 1003.46 584.565 1051.82" stroke="#2069E0"/>
<path d="M453.005 -426.888C396.268 -373.129 308.753 -236.422 326.144 -112.24C348.149 37.0447 489.604 22.9024 605.181 98.8461C720.758 174.79 684.164 264.53 774.016 432.669C845.328 558.174 784.087 598.595 763.682 696.783C761.097 838.831 855.895 916.371 766.75 952.857C677.605 989.343 629.336 998.432 606.875 1046.79" stroke="#2069E0"/>
<path d="M475.382 -431.928C418.645 -378.169 329.209 -241.297 348.521 -117.28C372.898 32.4587 522.937 7.69451 638.514 83.6382C754.091 159.582 708.672 255.524 797.554 427.973C866.996 554.977 793.332 592.847 777.276 691.183C779.038 839.009 878.272 911.331 789.127 947.817C699.982 984.303 651.713 993.392 629.252 1041.75" stroke="#2069E0"/>
<path d="M497.82 -436.979C441.083 -383.22 349.726 -246.182 370.959 -122.331C397.707 27.8618 556.331 -7.52426 671.908 68.4194C787.485 144.363 733.242 246.507 821.153 423.267C888.725 551.768 802.637 587.088 790.931 685.572C797.041 839.176 900.71 906.28 811.565 942.766C722.42 979.252 674.151 988.341 651.69 1036.7" stroke="#2069E0"/>
<path d="M520.303 -442.04C463.566 -388.28 370.288 -251.078 393.442 -127.391C422.562 23.2552 589.771 -22.7528 705.348 53.1909C820.925 129.135 757.856 237.48 844.797 418.55C910.499 548.55 811.988 581.319 804.631 679.952C815.088 839.334 923.193 901.22 834.048 937.705C744.903 974.191 696.634 983.281 674.173 1031.64" stroke="#2069E0"/>
<path d="M542.819 -447.104C486.082 -393.344 390.883 -255.977 415.958 -132.455C447.449 18.6449 623.242 -37.9849 738.819 37.9587C854.396 113.902 782.503 228.45 868.474 413.83C932.306 545.328 821.371 575.546 818.364 674.328C833.168 839.488 945.709 896.155 856.564 932.641C767.419 969.127 719.15 978.217 696.689 1026.57" stroke="#2069E0"/>
<path d="M565.376 -452.176C508.639 -398.417 411.519 -260.884 438.515 -137.528C472.378 14.0266 656.756 -53.2251 772.333 22.7185C887.91 98.6622 807.192 219.412 892.192 409.102C954.155 542.098 830.795 569.766 832.138 668.695C851.29 839.633 968.266 891.083 879.121 927.569C789.976 964.055 741.707 973.144 719.246 1021.5" stroke="#2069E0"/>
<path d="M587.974 -457.256C531.237 -403.496 432.196 -265.799 461.112 -142.607C497.347 9.4009 690.31 -68.4728 805.887 7.47086C921.464 83.4145 831.92 210.366 915.95 404.367C976.044 538.86 840.26 563.978 845.953 663.056C869.452 839.772 990.863 886.003 901.719 922.489C812.574 958.975 764.305 968.065 741.844 1016.42" stroke="#2069E0"/>
<path d="M610.605 -462.343C553.868 -408.584 452.906 -270.721 483.744 -147.695C522.349 4.76736 723.897 -83.7282 839.474 -7.78459C955.051 68.1591 856.683 201.313 939.742 399.624C997.966 535.615 849.759 558.182 859.801 657.408C887.647 839.903 1013.49 880.916 924.35 917.402C835.205 953.888 786.936 962.977 764.475 1011.33" stroke="#2069E0"/>
<path d="M633.269 -467.437C576.533 -413.678 473.65 -275.65 506.408 -152.789C547.386 0.127489 757.518 -98.99 873.095 -23.0464C988.672 52.8973 881.479 192.253 963.568 394.874C1019.92 532.364 859.291 552.38 873.683 651.755C905.877 840.027 1036.16 875.822 947.014 912.308C857.87 948.794 809.601 957.883 787.14 1006.24" stroke="#2069E0"/>
</svg>
